<svg width="157" height="39" viewBox="0 0 157 39" fill="none" id="svg950874601_3252">
<path d="M126.639 10.3037C119.035 10.3037 117.439 15.1078 117.439 19.136C117.439 23.1641 119.038 27.9683 126.639 27.9683C129.672 27.9683 131.748 27.2025 133.149 26.0269V27.48H135.838V19.1418C135.838 15.1078 134.239 10.3037 126.639 10.3037ZM126.639 25.2712C122.076 25.2712 120.129 23.4344 120.129 19.1287C120.129 14.823 122.076 12.9862 126.639 12.9862C131.202 12.9862 133.149 14.823 133.149 19.1287C133.149 23.4344 131.201 25.2857 126.639 25.2857V25.2712Z" fill="#93CC4B"></path>
<path d="M148.884 17.5836L148.13 17.4979C142.522 16.9515 141.966 16.3862 141.966 15.1365C141.966 14.3343 141.966 12.9931 147.662 12.9931C153.358 12.9931 153.813 14.1759 153.813 15.6088H156.51C156.51 10.3105 150.539 10.3105 147.663 10.3105C145.155 10.3105 139.277 10.3105 139.277 15.1437C139.277 19.3434 143.452 19.7517 147.851 20.1789L148.577 20.2632C153.572 20.8445 154.264 21.1424 154.264 22.751C154.264 24.4149 154.009 25.2853 148.521 25.2853C142.497 25.2853 141.287 23.8845 141.287 21.6277H138.59C138.59 27.9751 145.542 27.9751 148.512 27.9751C152.956 27.9751 156.94 27.5755 156.94 22.7437C156.94 18.5151 153.38 18.1053 148.878 17.5836" fill="#93CC4B"></path>
<path d="M65.2718 10.3037C58.596 10.3037 55.3496 13.7913 55.3496 20.9626V27.48H58.0409V20.9626C58.0409 15.3026 60.1349 12.9935 65.2718 12.9935C70.4087 12.9935 72.5041 15.3069 72.5041 20.9626V27.48H75.1939V20.9626C75.1939 13.7898 71.949 10.3037 65.2718 10.3037" fill="#93CC4B"></path>
<path d="M99.2207 20.9626V27.48H101.91V21.8345H112.558V19.1389H101.999C102.435 14.8099 104.599 12.9935 109.15 12.9935H115.945V10.3037H109.143C102.466 10.3037 99.2207 13.7913 99.2207 20.9626Z" fill="#93CC4B"></path>
<path d="M86.6452 10.3037C79.0409 10.3037 77.4453 15.1078 77.4453 19.1345C77.4453 23.1612 79.0438 27.9683 86.6452 27.9683C89.6794 27.9683 91.7531 27.2025 93.1554 26.0269V27.48H95.8437V19.1418C95.8437 15.1078 94.2453 10.3037 86.6452 10.3037ZM86.6452 25.2712C82.0809 25.2712 80.1337 23.4344 80.1337 19.1273C80.1337 14.8201 82.0809 12.9862 86.6452 12.9862C91.2096 12.9862 93.151 14.8303 93.151 19.1345C93.151 23.4388 91.2067 25.2857 86.6452 25.2857V25.2712Z" fill="#93CC4B"></path>
<path d="M29.3643 24.7166V19.7627C29.3643 14.5706 26.9027 11.9375 22.052 11.9375C17.2014 11.9375 14.7383 14.5764 14.7383 19.7627V24.7107H17.4499V19.7627C17.4499 16.0819 18.7388 14.6491 22.052 14.6491C25.3652 14.6491 26.6527 16.0819 26.6527 19.7627V24.7107L29.3643 24.7166Z" fill="#93CC4B"></path>
<path d="M22.052 2.24521C33.5034 2.24521 38.5896 6.9914 38.9093 18.0155L37.6116 16.7192L36.0261 18.3105L40.0646 22.3489L44.1031 18.3105L42.5147 16.7236L41.1545 18.0838C40.8246 5.76489 34.7429 0 22.052 0C10.5368 0 4.45511 4.73747 3.17773 14.8097H5.43457C6.61749 6.05989 11.7706 2.24521 22.052 2.24521ZM40.0719 19.1693L40.037 19.1359H40.1067L40.0719 19.1693Z" fill="#93CC4B"></path>
<path d="M22.051 36.0266C10.5997 36.0266 5.51349 31.279 5.19378 20.2549L6.4915 21.5512L8.0784 19.9643L4.03848 15.9258L0 19.9643L1.58836 21.5512L2.94857 20.191C3.27845 32.5055 9.36159 38.2718 22.051 38.2718C33.5663 38.2718 39.648 33.5329 40.9239 23.4607H38.6685C37.4856 32.2105 32.3311 36.0266 22.051 36.0266V36.0266ZM4.03121 19.101L4.06609 19.1359H3.99633L4.03121 19.101Z" fill="#93CC4B"></path>
</svg>