<svg height="981" width="4392" xmlns="http://www.w3.org/2000/svg" version="1.1">
<path transform="translate(395,0)" fill="#9BC13C" d="M0 0 C6.30680263 4.79789354 10.36150968 13.02012339 14.375 19.6875 C15.06783998 20.82760938 15.7610456 21.96749663 16.45458984 23.10717773 C34.42773813 52.72452211 51.57589402 82.77746885 67.29394531 113.65527344 C68.81796657 116.64312279 70.35585717 119.62327061 71.8984375 122.6015625 C97.82720816 173.04728037 117.94367355 226.73792232 100.5 283.54296875 C90.24313207 314.94423131 71.6916602 344.53868776 49.1953125 368.62890625 C47.38499117 370.58418213 45.6482411 372.57199534 43.9140625 374.59375 C39.69754247 379.42604616 35.21084855 383.9752311 30.67675781 388.50854492 C29.26080053 389.92668284 27.85301711 391.35296665 26.4453125 392.77929688 C20.27823374 398.9592595 13.85364287 404.59596018 7 410 C5.668479 411.09368896 5.668479 411.09368896 4.31005859 412.20947266 C1.20363246 414.6172648 -0.65258232 414.89241741 -4.5 414.68359375 C-10.03084857 413.17125234 -13.91290356 408.82747584 -18 405 C-19.09773716 404.00646159 -20.19674273 403.01432319 -21.296875 402.0234375 C-29.02276485 394.99648515 -36.45944061 387.66407587 -43.875 380.3125 C-44.74237793 379.45817383 -45.60975586 378.60384766 -46.50341797 377.72363281 C-52.43786393 371.79713731 -57.77383429 365.55365751 -63 359 C-64.02376114 357.76784782 -65.0506211 356.53825649 -66.08203125 355.3125 C-95.96661653 319.31418697 -118.96379025 269.19242431 -114.77734375 221.46142578 C-112.64363565 200.39105825 -107.94243938 179.98979145 -101 160 C-100.72881348 159.20899902 -100.45762695 158.41799805 -100.17822266 157.60302734 C-94.45268928 141.12683867 -86.80924692 125.56285658 -79 110 C-78.50032715 109.00339355 -78.0006543 108.00678711 -77.48583984 106.97998047 C-62.17964707 76.6587885 -43.23358973 48.24174947 -23 21 C-22.15188404 19.84408716 -21.30420834 18.68785112 -20.45703125 17.53125 C-6.97199419 -0.71985544 -6.97199419 -0.71985544 0 0 Z"></path>
<path transform="translate(11.22314453125,354.7412109375)" fill="#9BC13C" d="M0 0 C1.08597064 -0.00517623 1.08597064 -0.00517623 2.19388008 -0.01045704 C4.59923453 -0.01914771 7.00430985 -0.01325543 9.40966797 -0.00683594 C11.10610039 -0.00899198 12.80253209 -0.01180703 14.4989624 -0.01524353 C19.03045736 -0.0209484 23.56180935 -0.01227652 28.09328461 0.00104141 C30.89993873 0.00878378 33.70658264 0.01336231 36.51324463 0.0171814 C62.242421 0.05801553 87.93276422 0.21436597 113.6048584 2.10058594 C115.83526542 2.2630435 118.06617835 2.41601049 120.29736328 2.56738281 C175.21233399 6.34578724 230.56375505 13.5564328 271.77685547 53.25878906 C272.47037109 53.88914062 273.16388672 54.51949219 273.87841797 55.16894531 C298.60526611 78.31856651 313.83503116 113.60593487 323.77685547 145.25878906 C324.07398438 146.17853516 324.37111328 147.09828125 324.67724609 148.04589844 C328.8146153 160.92672763 331.96832358 173.9730284 334.77685547 187.19628906 C334.93687042 187.93062164 335.09688538 188.66495422 335.26174927 189.42153931 C339.22114488 207.73904163 339.22114488 207.73904163 335.24951172 215.08300781 C331.86988175 218.05686862 328.39780016 219.49047294 324.21435547 221.07128906 C323.34447998 221.40749268 322.47460449 221.74369629 321.57836914 222.09008789 C266.4237178 242.8495988 198.50345006 252.19326994 143.09765625 227.34570312 C125.9501408 219.31490796 111.28683682 208.42589749 97.77685547 195.25878906 C97.18839844 194.6907959 96.59994141 194.12280273 95.99365234 193.53759766 C88.38701483 186.17705724 81.2077063 178.68623887 74.77685547 170.25878906 C74.22384766 169.53916992 73.67083984 168.81955078 73.10107422 168.078125 C56.38962107 146.27407639 41.80126293 123.4462837 28.77685547 99.25878906 C28.0870459 97.98189209 28.0870459 97.98189209 27.38330078 96.67919922 C15.90566566 75.33639294 5.74896356 53.42994357 -3.51083374 31.04425049 C-4.18773952 29.41081543 -4.86947724 27.77937341 -5.55630493 26.15008545 C-6.52036914 23.85549485 -7.46240306 21.5530166 -8.39892578 19.24707031 C-8.68574219 18.57308701 -8.97255859 17.8991037 -9.26806641 17.20469666 C-11.28232409 12.14088073 -11.54194092 7.67832764 -11.22314453 2.25878906 C-7.5249007 -0.09077609 -4.31519854 0.00526801 0 0 Z"></path>
<path transform="translate(744.0625,353.9375)" fill="#9BC13C" d="M0 0 C1.30469238 0.01608622 1.30469238 0.01608622 2.63574219 0.03249741 C7.62921053 0.09415964 12.62162757 0.17500699 17.61419487 0.28871918 C19.12690341 0.32240292 20.63970582 0.35213785 22.15257454 0.37763214 C24.22098074 0.41528474 26.2879382 0.47207678 28.35571289 0.53491211 C29.51277237 0.5641124 30.66983185 0.59331268 31.86195374 0.62339783 C35.22132119 1.10302175 37.18210336 2.12715398 39.9375 4.0625 C39.6415121 12.98160197 36.24636734 20.47788907 32.8125 28.5625 C32.18063315 30.06979032 31.54904653 31.57719815 30.91772461 33.0847168 C9.24860359 84.57807018 -15.85982197 134.07938729 -52.0625 177.0625 C-52.51592773 177.60616211 -52.96935547 178.14982422 -53.43652344 178.70996094 C-83.2515699 214.42030049 -120.16625389 236.31012574 -166.890625 241.6875 C-173.58006692 242.27180064 -180.28905664 242.30661163 -187 242.3125 C-187.69780579 242.31317474 -188.39561157 242.31384949 -189.11456299 242.31454468 C-224.94566389 242.26011486 -259.58330104 234.81754115 -293.25 222.875 C-294.16491211 222.55426514 -295.07982422 222.23353027 -296.02246094 221.90307617 C-304.85566729 218.66785173 -304.85566729 218.66785173 -308.0625 215.0625 C-310.85359641 208.18389629 -309.69855591 202.54927621 -308.1875 195.4375 C-307.95844971 194.31303467 -307.72939941 193.18856934 -307.4934082 192.0300293 C-295.32791263 134.11972678 -273.29226864 69.75474128 -221.38671875 35.76171875 C-196.27367315 19.83707309 -168.36011712 11.77918079 -138.98828125 8.09375 C-138.33129745 8.01051294 -137.67431366 7.92727589 -136.99742126 7.84151649 C-120.059491 5.70654954 -103.0784097 4.11290984 -86.0625 2.75 C-85.24604633 2.68388142 -84.42959267 2.61776283 -83.58839798 2.54964066 C-55.69822074 0.30547852 -27.97356627 -0.39442359 0 0 Z"></path>
<path transform="translate(3042.1150512695313,111.86628723144531)" fill="#060606" d="M0 0 C1.07615999 -0.00339833 1.07615999 -0.00339833 2.17406058 -0.00686532 C4.57933392 -0.01319727 6.98455079 -0.01237641 9.38983154 -0.0115509 C11.11500623 -0.01454337 12.84018025 -0.0179461 14.56535339 -0.02172852 C19.25873064 -0.03057551 23.95208966 -0.03290725 28.64547443 -0.0335443 C31.58715567 -0.03425576 34.5288323 -0.03639216 37.47051239 -0.03904152 C47.76214389 -0.0483055 58.05376242 -0.05237612 68.34539795 -0.05158997 C77.88578108 -0.05099267 87.42610702 -0.06147284 96.96647573 -0.07733363 C105.18852221 -0.09050726 113.41055029 -0.09576961 121.63260722 -0.09513456 C126.52829795 -0.09488192 131.42393815 -0.09759956 136.31961823 -0.10831261 C232.23572624 -0.3032771 232.23572624 -0.3032771 265.88494873 31.13371277 C266.79502686 31.95355652 267.70510498 32.77340027 268.64276123 33.61808777 C286.53847783 50.48979879 293.81116165 73.0070594 294.88494873 97.13371277 C294.94682373 98.41568542 294.94682373 98.41568542 295.00994873 99.72355652 C295.60832833 124.59370849 288.49312225 147.72723117 272.88494873 167.13371277 C272.36803467 167.81433777 271.85112061 168.49496277 271.31854248 169.19621277 C262.84690844 179.72736686 251.1437 186.95830292 239.38104248 193.25871277 C236.49202278 194.80813116 233.67741326 196.41857141 230.88494873 198.13371277 C231.44778564 198.36445496 232.01062256 198.59519714 232.59051514 198.83293152 C259.6413709 209.99065152 285.8631037 224.24998069 299.88494873 251.13371277 C300.36319092 252.04636902 300.84143311 252.95902527 301.33416748 253.89933777 C314.42410748 280.7867821 314.25264233 315.2272945 305.06707764 343.37809753 C300.86335622 355.29675879 294.92015926 366.36428413 286.88494873 376.13371277 C286.08572998 377.10824402 285.28651123 378.08277527 284.46307373 379.08683777 C259.0725328 408.89270853 219.72719 417.54866117 182.48455811 420.70549011 C154.32299242 422.81488924 126.10442266 422.28468553 97.88494873 422.13371277 C88.91052126 422.08608375 79.93616444 422.04555193 70.9616394 422.02183533 C67.42287145 422.00907488 63.88433612 421.9840964 60.34564209 421.9584198 C49.56764466 421.90969974 39.07502008 422.14524955 28.39605713 423.67123413 C22.72893844 424.41769964 17.09297574 424.46361529 11.38494873 424.44621277 C9.75299561 424.47038269 9.75299561 424.47038269 8.08807373 424.49504089 C0.57522987 424.49957764 -5.98659667 423.77172528 -12.41973877 419.66105652 C-19.57123398 412.42061236 -20.47251174 404.11191096 -20.42755127 394.24308777 C-20.40692627 393.09324402 -20.38630127 391.94340027 -20.36505127 390.75871277 C-20.35989502 389.61660339 -20.35473877 388.47449402 -20.34942627 387.29777527 C-20.30225552 382.10899268 -20.10818861 376.99876964 -19.61360741 371.83357048 C-19.00910228 364.63778367 -18.97085141 357.47033977 -18.97702026 350.25386047 C-18.97459671 348.78347507 -18.97173276 347.31309034 -18.96847093 345.84270656 C-18.96078121 341.83384022 -18.95910196 337.82499105 -18.9584198 333.81611824 C-18.95656877 329.48079034 -18.94895597 325.14547223 -18.94194031 320.81015015 C-18.93045095 313.30803171 -18.9221881 305.80591547 -18.91582108 298.30379105 C-18.90546724 286.44702434 -18.88489907 274.59028537 -18.86270142 262.73353577 C-18.85522326 258.67287645 -18.84780939 254.61221701 -18.84041405 250.55155754 C-18.83856348 249.53700707 -18.83671291 248.52245659 -18.83480627 247.47716216 C-18.81390858 235.94666608 -18.79506347 224.41616698 -18.77716064 212.88566589 C-18.77552246 211.83235753 -18.77388428 210.77904917 -18.77219646 209.69382237 C-18.7458712 192.59791407 -18.72724651 175.50200362 -18.71056874 158.4060836 C-18.69315857 140.84299654 -18.66433071 123.27995194 -18.62567937 105.7168988 C-18.60227402 94.88794736 -18.58828433 84.0590651 -18.58635174 73.23008816 C-18.58424512 65.81678773 -18.57133908 58.40355626 -18.54987241 50.99028678 C-18.53782782 46.71205685 -18.53070257 42.43396386 -18.53658485 38.15571785 C-18.54187214 34.24027904 -18.53343169 30.32511987 -18.51402847 26.4097278 C-18.5094462 24.99276891 -18.50993263 23.57578275 -18.51597686 22.15882935 C-18.52345759 20.23343925 -18.51073176 18.30800236 -18.49701881 16.38264656 C-18.49498402 14.77821274 -18.49498402 14.77821274 -18.49290812 13.14136612 C-17.94148238 8.75214446 -16.41989693 5.35437484 -13.17755127 2.32121277 C-8.91558193 -0.13264837 -4.85565239 0.00633181 0 0 Z M24.88494873 37.13371277 C23.57099977 39.76161068 23.75004799 41.71814495 23.73777771 44.6622467 C23.73062241 45.83719696 23.7234671 47.01214722 23.71609497 48.22270203 C23.71340607 49.51833069 23.71071716 50.81395935 23.70794678 52.14884949 C23.70168293 53.52194898 23.6950362 54.89504677 23.68803406 56.2681427 C23.67061889 60.00370499 23.66007123 63.73925448 23.65182853 67.47484732 C23.64668021 69.80763185 23.64060445 72.1404124 23.6343174 74.47319412 C23.61526518 81.76889338 23.60103325 89.0645825 23.59270543 96.36030185 C23.58292723 104.78789569 23.55659287 113.21522729 23.51620454 121.64272869 C23.48607175 128.15318334 23.47123933 134.66356269 23.46792442 141.17408574 C23.46557096 145.06434005 23.45657253 148.95431422 23.43146324 152.84449387 C23.40822631 156.50368845 23.40393123 160.16241755 23.41422462 163.82166672 C23.41495804 165.80570704 23.39583667 167.7897235 23.37615967 169.77366638 C23.38310349 170.95425629 23.3900473 172.13484619 23.39720154 173.35121155 C23.39481318 174.37733488 23.39242483 175.40345821 23.3899641 176.46067619 C24.01578142 179.84024093 25.25393601 180.99689475 27.88494873 183.13371277 C30.48495284 184.43371482 32.37962403 184.26550747 35.2923584 184.27415466 C36.44129578 184.27986481 37.59023315 184.28557495 38.77398682 184.29145813 C40.6750116 184.29313492 40.6750116 184.29313492 42.61444092 184.29484558 C43.95833472 184.29947384 45.30222721 184.30449851 46.64611816 184.30989075 C50.30851662 184.32303808 53.9708967 184.32946718 57.63331509 184.33390141 C59.9300581 184.33683551 62.22679616 184.34094152 64.52353668 184.34540558 C71.73277855 184.35910228 78.94200902 184.36875164 86.151263 184.37260747 C94.42580967 184.37705842 102.7001887 184.39445743 110.97468448 184.42360806 C117.39370252 184.44542044 123.81267418 184.45532245 130.23172879 184.45664859 C134.05208102 184.45768513 137.8722762 184.46333858 141.69258881 184.4814682 C173.28330039 184.62264766 208.11362561 183.69673965 232.88494873 161.13371277 C233.65322998 160.44535339 234.42151123 159.75699402 235.21307373 159.04777527 C247.55422233 147.40132709 253.21031504 132.25820366 253.91204834 115.49308777 C254.27586045 95.71617085 249.43409436 75.32289141 235.82342529 60.43766785 C213.40665273 37.22967218 178.20801372 35.56452744 147.82620239 34.94633484 C140.89709366 34.85754927 133.96834297 34.8513467 127.0387609 34.86506176 C123.58675601 34.8702404 120.13475999 34.86540051 116.68275452 34.86228943 C110.91704342 34.85869366 105.1513843 34.86334217 99.38568115 34.87297058 C92.73064147 34.88395603 86.07572341 34.88023981 79.42068642 34.86931777 C73.66134593 34.86024771 67.902042 34.85895497 62.14269668 34.86419511 C58.72125197 34.86730248 55.29986465 34.867756 51.87842369 34.86112213 C48.08843977 34.85606121 44.29869411 34.86375612 40.50872803 34.87492371 C39.3841922 34.87087524 38.25965637 34.86682678 37.1010437 34.86265564 C35.5567141 34.87111511 35.5567141 34.87111511 33.98118591 34.87974548 C32.64167138 34.88087656 32.64167138 34.88087656 31.27509594 34.88203049 C28.68580329 35.15468277 27.07455743 35.74118131 24.88494873 37.13371277 Z M24.88494873 222.13371277 C23.48948301 224.92464421 23.74607888 227.22180543 23.73104858 230.34559631 C23.72666633 230.98968417 23.72228408 231.63377203 23.71776903 232.29737771 C23.70436641 234.46531912 23.69819897 236.63321988 23.69207764 238.80119324 C23.68417794 240.3516305 23.67590907 241.90206592 23.66729736 243.45249939 C23.64106609 248.55194845 23.62577053 253.65140579 23.61151123 258.75090027 C23.60615236 260.50475698 23.60077486 262.25861364 23.59537888 264.01247025 C23.57375022 271.30585709 23.55501192 278.59924171 23.54375648 285.89265251 C23.52750633 296.35455966 23.49430278 306.81609603 23.43735564 317.27786338 C23.39870036 324.62907323 23.37912916 331.98018371 23.37383592 339.33149254 C23.37017691 343.72481914 23.3580976 348.11775041 23.32573318 352.51096725 C23.29572913 356.64297526 23.28931291 360.77434713 23.30111694 364.90644073 C23.30133831 366.42381533 23.29298082 367.94121879 23.2754631 369.45849228 C23.25285653 371.52905332 23.26102221 373.59729078 23.27694702 375.66786194 C23.27363688 376.82672346 23.27032673 377.98558498 23.26691628 379.17956352 C23.65376978 382.29150021 23.65376978 382.29150021 26.07850742 384.50650311 C29.18074445 386.30521881 30.84205034 386.63413476 34.39601135 386.63491821 C35.49255035 386.64475235 36.58908936 386.65458649 37.71885681 386.66471863 C39.51000664 386.65021667 39.51000664 386.65021667 41.33734131 386.63542175 C43.2364325 386.64352623 43.2364325 386.64352623 45.17388916 386.65179443 C48.64894548 386.66576081 52.12350687 386.65455436 55.59853578 386.63808322 C59.26844744 386.62415587 62.93833249 386.63070454 66.60826111 386.63421631 C72.79977261 386.63692159 78.99109076 386.62344713 85.18255615 386.6002655 C92.25248246 386.5739709 99.32207914 386.57180476 106.39203721 386.58365387 C113.26106549 386.59462187 120.12997922 386.58807893 126.99899864 386.57409859 C129.88368255 386.56846798 132.76827894 386.56831629 135.65296364 386.57316399 C196.02750779 387.18046163 196.02750779 387.18046163 247.69744873 359.82121277 C264.70656907 342.07788579 269.38752711 320.35960233 269.09979248 296.54386902 C268.55627504 277.37221974 261.65820056 259.63297812 248.49041748 245.58293152 C217.59562904 216.540904 169.28515802 218.98761269 129.8143816 218.93352413 C127.75487068 218.93055795 125.69536489 218.926448 123.63585663 218.92201996 C117.16780579 218.90843839 110.69976712 218.8987177 104.23170304 218.89481807 C96.80499784 218.89031218 89.37847436 218.87260922 81.95182443 218.84381747 C76.17306786 218.82219933 70.39436258 218.81211429 64.61556602 218.81077695 C61.17825217 218.80973219 57.74111141 218.80389055 54.30384064 218.78595734 C50.48470532 218.7689353 46.66602047 218.77076592 42.84686279 218.77726746 C41.15434891 218.76344528 41.15434891 218.76344528 39.42764282 218.74934387 C33.87218304 218.77902409 29.61996577 218.85539356 24.88494873 222.13371277 Z"></path>
<path transform="translate(1011,116)" fill="#060606" d="M0 0 C6.13287344 6.68389531 11.05630989 14.3626467 16 21.9375 C20.52952315 28.85121551 25.14942946 35.64870516 30.04443359 42.30932617 C33.23529881 46.69965395 36.27089375 51.19307757 39.3125 55.6875 C40.62605847 57.62125925 41.93986217 59.55485195 43.25390625 61.48828125 C43.89086426 62.42623535 44.52782227 63.36418945 45.18408203 64.33056641 C47.6940812 68.02031243 50.21937453 71.69938082 52.75 75.375 C53.18948975 76.01356934 53.62897949 76.65213867 54.08178711 77.31005859 C54.95379555 78.57675878 55.82594535 79.84336167 56.69824219 81.10986328 C63.53532325 91.03722292 70.35501108 100.97632432 77.15917969 110.92626953 C81.98034499 117.97489904 86.81630573 125.013269 91.65722656 132.04833984 C93.93908519 135.36491764 96.21945755 138.6825171 98.5 142 C99.41665976 143.33333808 100.33332642 144.66667142 101.25 146 C110.41666667 159.33333333 119.58333333 172.66666667 128.75 186 C129.20358887 186.6597583 129.65717773 187.3195166 130.12451172 187.99926758 C131.04283361 189.33502333 131.9611278 190.67079812 132.87939453 192.0065918 C135.14551157 195.30301745 137.41208059 198.59913027 139.6796875 201.89453125 C145.18518464 209.89670733 150.67634388 217.90854995 156.15917969 225.92626953 C160.98034499 232.97489904 165.81630573 240.013269 170.65722656 247.04833984 C172.93908519 250.36491764 175.21945755 253.6825171 177.5 257 C178.41665976 258.33333808 179.33332642 259.66667142 180.25 261 C207.75 301 207.75 301 209.12524414 303.00048828 C210.0409312 304.33230803 210.95678378 305.66401398 211.87280273 306.99560547 C214.1808358 310.3511778 216.48585859 313.70874738 218.78515625 317.0703125 C219.71076648 318.42199213 220.63654653 319.77355548 221.5625 321.125 C222.01085205 321.78000488 222.4592041 322.43500977 222.92114258 323.10986328 C225.21567209 326.44954498 227.53862052 329.76415718 229.9140625 333.046875 C230.37997803 333.69124512 230.84589355 334.33561523 231.32592773 334.99951172 C232.21424256 336.22311482 233.10679838 337.44365351 234.00415039 338.66064453 C237 342.78200332 237 342.78200332 237 345 C238.65 345 240.3 345 242 345 C241.99682605 344.12129762 241.99682605 344.12129762 241.99358797 343.22484368 C241.86727897 308.24996701 241.74194398 273.27508698 241.61781773 238.3002025 C241.60280333 234.06984526 241.58778106 229.83948805 241.57275391 225.60913086 C241.56976329 224.76719287 241.56677268 223.92525487 241.56369144 223.05780361 C241.51569706 209.5513492 241.46706969 196.04489715 241.41819459 182.53844591 C241.3677936 168.60627913 241.31810474 154.67410994 241.26903296 140.74193841 C241.24155976 132.94737943 241.21378207 125.15282181 241.18519592 117.35826683 C241.17425914 114.36662684 241.16335234 111.37498673 241.15246582 108.38334656 C241.14980259 107.6527622 241.14713935 106.92217784 241.14439541 106.16945457 C241.11604584 98.35694575 241.08946904 90.5444379 241.06833649 82.73190594 C241.06559293 81.71991435 241.06559293 81.71991435 241.06279394 80.68747849 C241.0538006 77.3476378 241.04502153 74.00779673 241.03642988 70.66795498 C241.01530368 62.92800222 240.98137864 55.18823999 240.9366622 47.44838852 C240.91049036 42.65613454 240.89219708 37.86387173 240.87567997 33.07157576 C240.86624148 30.86482488 240.85329733 28.65808572 240.8365469 26.45137823 C240.81415191 23.45597108 240.80409741 20.46076291 240.79699707 17.46528625 C240.78737096 16.60059853 240.77774485 15.7359108 240.76782703 14.84502041 C240.77185326 8.89266667 241.0325793 3.41167699 244.9375 -1.375 C249.37262 -4.86933697 254.31795651 -4.18362307 259.6875 -4.1875 C260.56083984 -4.19974609 261.43417969 -4.21199219 262.33398438 -4.22460938 C275.68614581 -4.2545246 275.68614581 -4.2545246 280.4375 0.375 C283.08247381 4.81855599 283.12561907 8.53260808 283.12863445 13.66994095 C283.13038749 14.34244391 283.13214053 15.01494686 283.13394669 15.7078287 C283.13861538 17.97151967 283.13613895 20.23514665 283.13371277 22.49884033 C283.13558031 24.13413729 283.13788078 25.7694338 283.14057809 27.4047296 C283.14670965 31.90667718 283.1465609 36.40860623 283.14538372 40.91055703 C283.14518005 45.76276707 283.15069524 50.61497109 283.15544128 55.46717834 C283.16375605 64.97705916 283.16649651 74.48693377 283.16705366 83.99681792 C283.16752847 91.72596535 283.16958147 99.45511073 283.17275429 107.18425751 C283.18156345 129.08909942 283.1861733 150.99393644 283.18542381 172.89878014 C283.18536388 174.6709909 283.18536388 174.6709909 283.18530273 176.47900391 C283.18526185 177.66191748 283.18522097 178.84483106 283.18517885 180.0635905 C283.1847724 199.23442432 283.19434097 218.4052385 283.2084411 237.57606664 C283.22279874 257.25200923 283.22971161 276.92794222 283.22884732 296.60389018 C283.22851512 307.65381496 283.23127233 318.70371915 283.24202538 329.75363922 C283.25112237 339.16225158 283.25331225 348.57083403 283.24651595 357.97944888 C283.24324658 362.78037042 283.2432091 367.58123454 283.2518692 372.38215065 C283.25971676 376.77781611 283.25832062 381.17337845 283.24958507 385.56904134 C283.24804622 387.15855607 283.2498807 388.74807843 283.25544515 390.33758417 C283.31559933 408.74100835 283.31559933 408.74100835 279.3125 414.375 C274.04349223 418.077546 267.97437372 418.36200644 261.75 418.3125 C261.00419678 418.30686035 260.25839355 418.3012207 259.48999023 418.29541016 C246.48909709 418.01165214 235.95101697 413.43739095 226.85253906 404.10693359 C223.32205666 400.09163797 220.44593817 395.63933076 217.5 391.1875 C216.39178074 389.53558856 215.28354134 387.88369052 214.17468262 386.23220825 C212.97076659 384.43687457 211.77034296 382.63924135 210.5703125 380.84130859 C206.40246263 374.60381552 202.1877012 368.39792276 197.98071289 362.1867981 C196.00422568 359.26781326 194.02980298 356.34743455 192.05529785 353.42710876 C184.05974619 341.60248388 176.03627255 329.79699068 168 318 C167.02643555 316.57059082 167.02643555 316.57059082 166.03320312 315.11230469 C157.90089745 303.17381999 149.75321538 291.24592721 141.59277344 279.32666016 C138.89439623 275.38497794 136.19728271 271.44243121 133.5 267.5 C132.96503906 266.71818359 132.43007812 265.93636719 131.87890625 265.13085938 C129.1452716 261.13580054 126.41208238 257.14043814 123.6796875 253.14453125 C117.2469043 243.73803144 110.80269396 234.33954319 104.34277344 224.95166016 C102.06091481 221.63508236 99.78054245 218.3174829 97.5 215 C96.58334024 213.66666192 95.66667358 212.33332858 94.75 211 C34.25 123 34.25 123 32.87573242 121.00097656 C31.95673481 119.66431207 31.03762629 118.32772382 30.1184082 116.99121094 C27.86150071 113.70945265 25.60637737 110.42650124 23.35546875 107.140625 C18.14078436 99.53212663 12.89596083 91.94462209 7.625 84.375 C7.04194092 83.53356445 6.45888184 82.69212891 5.8581543 81.82519531 C2.74880827 77.37110978 -0.44800997 73.11073003 -4 69 C-5.99531684 72.33032486 -6.24682336 74.83640099 -6.23771572 78.69163322 C-6.23984772 79.85935135 -6.24197972 81.02706947 -6.24417633 82.23017299 C-6.23630429 83.51400564 -6.22843224 84.79783828 -6.22032166 86.12057495 C-6.21904577 87.49743381 -6.21865882 88.87429373 -6.21908575 90.25115311 C-6.21773401 94.03871348 -6.2039188 97.82614274 -6.1881541 101.61366677 C-6.17336722 105.69690156 -6.17018398 109.78014652 -6.16572571 113.86340332 C-6.15653453 120.94061394 -6.14034873 128.01778069 -6.11976433 135.09496689 C-6.09025659 145.33396132 -6.07461005 155.57294208 -6.06295223 165.81197073 C-6.04393111 182.43211461 -6.01817599 199.05223961 -5.98608398 215.67236328 C-5.98320708 217.16490748 -5.98320708 217.16490748 -5.98027206 218.68760408 C-5.95872569 229.78889159 -5.93555471 240.89017476 -5.9105835 251.99145508 C-5.90155195 256.01660152 -5.89253542 260.041748 -5.88354492 264.06689453 C-5.88132327 265.06010774 -5.87910161 266.05332095 -5.87681263 267.07663153 C-5.84010429 283.63145954 -5.81502186 300.18628248 -5.79907519 316.74114335 C-5.78873461 326.95541464 -5.76830558 337.16956984 -5.73495758 347.38379242 C-5.7128388 354.38178031 -5.70144192 361.37973272 -5.69852226 368.37775479 C-5.69647136 372.4169778 -5.689444 376.45603586 -5.66930008 380.49521255 C-5.65094754 384.19258292 -5.64641345 387.88970266 -5.65287787 391.58711053 C-5.65270069 393.55888047 -5.63765018 395.53063173 -5.62208027 397.5023402 C-5.6500231 404.41728362 -5.94116921 409.30391279 -10.5 414.8125 C-16.70738479 419.72667963 -30.4292343 418.65573561 -38 418 C-41.88083494 417.0989652 -44.39340901 415.78856828 -46.875 412.5625 C-48.84411263 408.07729902 -49.12409671 404.35501544 -49.12025452 399.44941139 C-49.12110876 398.78981623 -49.12196301 398.13022107 -49.12284315 397.45063818 C-49.12449312 395.23086886 -49.11897618 393.01117477 -49.11352539 390.79141235 C-49.11324548 389.18768896 -49.11340815 387.58396545 -49.11397648 385.98024213 C-49.11427264 381.56564002 -49.10832828 377.15106468 -49.10140657 372.73646879 C-49.09504343 367.97837187 -49.09446429 363.22027398 -49.0932312 358.46217346 C-49.09034172 350.21453038 -49.08389777 341.96689622 -49.07516479 333.71925735 C-49.06262415 321.78795686 -49.05653712 309.85665969 -49.05223143 297.92535369 C-49.04516033 278.55993369 -49.03435547 259.19451786 -49.02050781 239.82910156 C-49.01968 238.66958828 -49.01885219 237.51007501 -49.01799929 236.31542496 C-49.01125502 226.90787214 -49.00433057 217.50031945 -48.99739647 208.09276676 C-48.99134463 199.87239144 -48.98536404 191.65201608 -48.97949219 183.43164062 C-48.97866406 182.27414266 -48.97783593 181.11664469 -48.97698271 179.92407103 C-48.96330382 160.63460496 -48.9535408 141.34513882 -48.94658184 122.05566919 C-48.94209667 110.15242618 -48.93404838 98.24919556 -48.92143703 86.34595834 C-48.9130203 78.19160819 -48.90812262 70.0372609 -48.90601182 61.88290669 C-48.90466489 57.17540906 -48.90164407 52.46792745 -48.89425278 47.7604351 C-48.8875143 43.45249008 -48.88536552 39.14456826 -48.88688838 34.83661847 C-48.88661652 33.27674797 -48.88463786 31.71687666 -48.8807956 30.15701087 C-48.87581936 28.03873519 -48.87701412 25.92054863 -48.87974548 23.80227089 C-48.87836279 22.03640631 -48.87836279 22.03640631 -48.87695217 20.23486769 C-48.99732881 17.0702242 -49.42356929 14.11017923 -50 11 C-50.12945145 9.4615193 -50.21727413 7.9185704 -50.25 6.375 C-50.27578125 5.64023438 -50.3015625 4.90546875 -50.328125 4.1484375 C-49.86784321 1.13468772 -49.30040773 0.0554974 -47 -2 C-44.00865833 -2.96206734 -40.98608375 -3.35697204 -37.875 -3.75 C-36.98570801 -3.86923828 -36.09641602 -3.98847656 -35.18017578 -4.11132812 C-9.47309562 -7.31498775 -9.47309562 -7.31498775 0 0 Z"></path>
<path transform="translate(4249.31640625,219.87890625)" fill="#060606" d="M0 0 C31.38996061 -0.90292611 61.17938719 11.15741829 84.0012207 32.45483398 C91.1311786 39.32092129 97.22561363 46.86241132 102.68359375 55.12109375 C102.6976123 53.19861816 102.6976123 53.19861816 102.71191406 51.23730469 C102.75179436 46.48092933 102.8175479 41.72520213 102.89111328 36.96923828 C102.91933424 34.91105477 102.94054316 32.85276265 102.95458984 30.79443359 C102.97600365 27.8350459 103.02264596 24.87696555 103.07421875 21.91796875 C103.07544739 20.99804138 103.07667603 20.07811401 103.07794189 19.13031006 C103.1657368 15.29863182 103.23740407 12.84192994 105.2800293 9.54199219 C108.55608528 7.60530901 110.95277985 7.60345473 114.75 7.58984375 C115.42530258 7.58601685 116.10060516 7.58218994 116.79637146 7.57824707 C118.21932472 7.57553279 119.64232828 7.5828604 121.06518555 7.59960938 C123.24315349 7.62106479 125.41783619 7.59977999 127.59570312 7.57421875 C128.98047602 7.57686147 130.36524688 7.58198529 131.75 7.58984375 C133.63634155 7.59661133 133.63634155 7.59661133 135.56079102 7.60351562 C138.68359375 8.12109375 138.68359375 8.12109375 140.35193157 9.75652504 C142.07569441 12.8173281 142.08046199 14.9630417 142.11299133 18.47177124 C142.13218187 19.77928722 142.15137241 21.08680321 142.17114449 22.43394089 C142.17732574 23.8809267 142.1831734 25.32791396 142.1887207 26.77490234 C142.20517675 28.2980953 142.22287665 29.82127526 142.24172783 31.34444046 C142.28905464 35.49081751 142.31747313 39.63713363 142.34215713 43.78369951 C142.36529559 47.29230012 142.39911411 50.80076474 142.43299872 54.30927551 C142.54797092 66.24638865 142.62057278 78.18360945 142.68359375 90.12109375 C142.69309475 91.85134389 142.70261334 93.58159393 142.71215057 95.31184387 C142.83304969 117.63180748 142.87041068 139.95139982 142.86870682 162.27165771 C142.86900902 168.11504398 142.87730064 173.95838494 142.8894043 179.80175781 C142.95714799 213.32439026 142.91588036 246.82486752 141.796875 280.33203125 C141.75792807 281.52617268 141.71898113 282.7203141 141.67885399 283.95064163 C141.26094849 296.36439977 140.64313111 308.75194431 139.72338867 321.13916016 C139.6088898 322.71278352 139.6088898 322.71278352 139.49207783 324.31819725 C137.00831077 355.79619813 126.27189915 387.04058501 101.68359375 408.12109375 C66.52543872 435.3586084 20.23501226 437.36432898 -22.31640625 432.12109375 C-50.92077341 428.14619472 -80.14388581 417.99458449 -98.453125 394.36328125 C-107.0985783 382.41523543 -119.97956289 363.23212156 -118.91796875 348.0625 C-117.92334756 344.85258616 -116.18567316 343.1565483 -113.4921875 341.21875 C-106.59739204 337.74040615 -99.39281197 339.01170281 -92.21875 341.04296875 C-83.78157166 344.17710229 -78.90233065 348.77327967 -74.99609375 356.8515625 C-71.71777086 363.6227582 -68.28152235 369.45450429 -63.31640625 375.12109375 C-62.51783203 376.04341797 -62.51783203 376.04341797 -61.703125 376.984375 C-47.50184976 392.27023451 -21.9330715 401.04209719 -1.42651367 402.2980957 C24.14058334 402.81953402 46.37589986 399.86603433 66.68359375 383.12109375 C67.46089844 382.50621094 68.23820312 381.89132812 69.0390625 381.2578125 C90.23255086 363.63912941 99.75003854 335.16562565 102.25 308.52734375 C102.78473212 301.68127387 102.83417315 294.86005251 102.80859375 287.99609375 C102.80666016 286.73450439 102.80472656 285.47291504 102.80273438 284.1730957 C102.75806575 274.46201316 102.40948999 264.80403105 101.68359375 255.12109375 C101.02230469 255.99894531 101.02230469 255.99894531 100.34765625 256.89453125 C81.33907561 281.14685828 57.92404059 300.45631596 27.68359375 308.12109375 C26.28560547 308.48847656 26.28560547 308.48847656 24.859375 308.86328125 C8.40737811 312.36983825 -10.03794151 310.95132075 -26.31640625 307.12109375 C-27.14205078 306.92773438 -27.96769531 306.734375 -28.81835938 306.53515625 C-47.79047889 301.93068679 -65.12717128 294.51722832 -80.31640625 282.12109375 C-80.83783203 281.69602539 -81.35925781 281.27095703 -81.89648438 280.83300781 C-110.38335953 257.14148273 -125.10436213 220.40618273 -128.84765625 184.20703125 C-129.60437665 174.65343614 -129.64380482 165.07449085 -129.69140625 155.49609375 C-129.69944275 154.59596558 -129.70747925 153.6958374 -129.71575928 152.76843262 C-129.83168241 135.63288639 -128.39166339 118.5290936 -123.62890625 101.99609375 C-123.37544434 101.09560303 -123.12198242 100.1951123 -122.86083984 99.26733398 C-120.1167381 89.88520569 -116.49285066 80.95020882 -112.31640625 72.12109375 C-111.99414062 71.43934082 -111.671875 70.75758789 -111.33984375 70.05517578 C-96.41699967 39.10998947 -69.60104123 17.65450879 -37.53125 6.4375 C-25.32281836 2.4492383 -12.77891687 0.66803781 0 0 Z M-50.31640625 52.12109375 C-51.14269531 52.77335937 -51.96898438 53.425625 -52.8203125 54.09765625 C-64.97280094 64.25325692 -73.04609879 77.75995404 -79.31640625 92.12109375 C-79.5985498 92.7665918 -79.88069336 93.41208984 -80.17138672 94.07714844 C-95.75087083 130.59758908 -96.42681425 176.42663607 -81.71875 213.18359375 C-71.54020068 237.74173763 -56.2132292 259.09324285 -31.0703125 269.6875 C-9.16020382 278.34059173 18.63110008 280.3104168 40.75439453 271.27539062 C67.34582797 259.73998639 83.00859331 239.43780795 93.68359375 213.12109375 C109.69783547 170.63358316 107.5624371 128.12593782 88.97265625 86.9140625 C78.29904123 64.09260101 61.23374152 46.43097323 37.60546875 37.1484375 C7.32791266 26.50271925 -25.47417761 31.6350853 -50.31640625 52.12109375 Z"></path>
<path transform="translate(1609.9375,226.8125)" fill="#060606" d="M0 0 C1.08990234 0.00064453 2.17980469 0.00128906 3.30273438 0.00195312 C9.72212376 0.03628141 16.02628075 0.37398058 22.40844727 1.07299805 C25.15850045 1.19164168 27.38900908 0.79775037 30.0625 0.1875 C38.72900342 -0.41052795 46.55115919 -0.68720689 54.0625 4.1875 C54.67351562 4.57679688 55.28453125 4.96609375 55.9140625 5.3671875 C64.78809415 11.97384542 68.95843489 23.55912149 72.375 33.6875 C72.98323608 35.4355896 72.98323608 35.4355896 73.60375977 37.21899414 C74.81963837 40.71438314 76.01874075 44.21536278 77.21618652 47.71710205 C79.91118161 55.58382108 82.63454545 63.44084738 85.35101318 71.3001709 C86.12275273 73.53335762 86.89410948 75.76667667 87.6651001 78.00012207 C95.34251089 100.23476849 103.24145524 122.38586557 111.21794128 144.51472473 C114.1877156 152.7537807 117.14837683 160.99606386 120.10448837 169.24002838 C130.98884938 199.59323654 141.91950491 229.92801804 153.0625 260.1875 C154.0525 260.1875 155.0425 260.1875 156.0625 260.1875 C158.58747456 255.5884392 160.45215873 251.18935161 161.93823242 246.15307617 C163.89212927 239.67985331 166.05116739 233.30137993 168.30078125 226.92578125 C168.69802902 225.79383835 169.09527679 224.66189545 169.50456238 223.49565125 C170.79209892 219.82951091 172.08342113 216.16471797 173.375 212.5 C174.05325641 210.57179942 174.73114148 208.64346854 175.40902138 206.71513557 C181.04009707 190.69879997 186.71842593 174.69970621 192.44772339 158.7182312 C198.0130958 143.19033103 203.4835721 127.62985664 208.9375 112.0625 C221.25089891 76.92684299 221.25089891 76.92684299 227.23590088 59.98638916 C227.93748188 57.99953755 228.63816916 56.01237005 229.33782959 54.02484131 C231.55224481 47.73577152 233.79558485 41.4578252 236.0625 35.1875 C236.56487183 33.78624878 236.56487183 33.78624878 237.07739258 32.35668945 C238.09571865 29.52966239 239.13138615 26.70956066 240.171875 23.890625 C240.6240036 22.62687042 240.6240036 22.62687042 241.08526611 21.33758545 C243.63021652 14.53603508 246.86230618 7.67918137 252.69140625 3.140625 C257.79834847 1.6967155 262.72207803 1.83507823 268 1.9375 C269.58844727 1.94523438 269.58844727 1.94523438 271.20898438 1.953125 C276.58695118 2.00680402 281.76434297 2.25297444 287.0625 3.1875 C286.40981996 8.69951701 284.59698637 13.51154796 282.625 18.65625 C282.0980957 20.05147385 282.0980957 20.05147385 281.56054688 21.47488403 C280.79940154 23.48881 280.03579976 25.50180891 279.27001953 27.51397705 C277.18958997 32.9816244 275.12782068 38.45631951 273.0625 43.9296875 C272.63855957 45.05152435 272.21461914 46.17336121 271.77783203 47.32919312 C267.82131211 57.8048151 263.93340186 68.30500363 260.0625 78.8125 C258.65558144 82.62783805 257.24788373 86.44288818 255.83984375 90.2578125 C255.47020004 91.25935364 255.10055634 92.26089478 254.7197113 93.29278564 C248.27494981 110.74554552 241.78664989 128.18221598 235.30444336 145.62109375 C234.18210032 148.64061437 233.05979471 151.66014891 231.9375 154.6796875 C231.51719356 155.81045841 231.51719356 155.81045841 231.08839607 156.96407318 C227.01150132 167.93300551 222.94333954 178.90514496 218.88067818 189.87935638 C217.13792266 194.58603316 215.39369666 199.29216522 213.64944363 203.9982872 C212.27077894 207.71845054 210.89307476 211.43896288 209.51785278 215.16040039 C207.98482074 219.3085197 206.44909248 223.4556299 204.91015625 227.6015625 C204.66587513 228.25968807 204.42159401 228.91781364 204.16991043 229.59588242 C200.1243566 240.47899793 195.92798603 251.29772318 191.61756897 262.07876587 C188.32651143 270.34668837 185.60956825 278.66621068 183.0625 287.1875 C180.46221891 295.67798303 176.99597285 300.92990706 169.0703125 305.28125 C160.27351473 308.86636003 148.23564723 308.67441721 139.37347412 305.3717041 C132.19047459 301.69094566 128.73609482 294.21105111 126.109375 286.96875 C125.77846863 286.10052612 125.44756226 285.23230225 125.10662842 284.33776855 C124.07672741 281.62646251 123.06963482 278.90733023 122.0625 276.1875 C121.42980156 274.52004749 120.79508193 272.85336031 120.15820312 271.1875 C118.53732161 266.9393403 116.93564257 262.68423891 115.3397522 258.42663574 C105.41059427 231.95084778 95.24087692 205.56821037 85.0625 179.1875 C84.17006581 176.87386794 83.27765058 174.56022856 82.38525391 172.24658203 C77.3453709 159.18092908 72.30198046 146.11663351 67.25688171 133.05299377 C63.97241973 124.54710152 60.69243138 116.03949227 57.4140625 107.53125 C46.05157249 78.04855265 34.61334755 48.59693594 23.0625 19.1875 C22.7325 19.1875 22.4025 19.1875 22.0625 19.1875 C21.89234375 19.77917969 21.7221875 20.37085938 21.546875 20.98046875 C19.69139994 27.03050179 18.08662535 31.56683614 12.234375 34.703125 C6.768952 36.95134332 0.88039004 37.33346118 -4.9375 38.0625 C-25.30451812 40.88054383 -43.51206172 47.17353973 -58.9375 61.1875 C-60.27554687 62.38632812 -60.27554687 62.38632812 -61.640625 63.609375 C-82.99905597 83.77459754 -92.51809276 111.12150366 -93.38742065 140.0186615 C-93.4284773 141.52413478 -93.46856565 143.0296347 -93.5078125 144.53515625 C-93.52923435 145.32862017 -93.5506562 146.12208408 -93.5727272 146.93959236 C-94.0203725 164.24870592 -93.98141014 181.55786306 -93.9296875 198.87109375 C-93.92578256 200.28712582 -93.92190944 201.70315797 -93.91806793 203.11919022 C-93.88161331 216.29021518 -93.83546758 229.46118535 -93.76611328 242.63208008 C-93.73156439 249.21107749 -93.70779044 255.79002367 -93.69590485 262.36910206 C-93.68918027 265.81903748 -93.67689681 269.26874728 -93.65087509 272.7185955 C-93.62444291 276.53051302 -93.61650958 280.34205509 -93.61279297 284.15405273 C-93.6004361 285.27543137 -93.58807922 286.39681 -93.5753479 287.5521698 C-93.59265664 294.2727778 -93.80430546 300.05430546 -98.8125 305.0625 C-107.00958915 309.40213543 -119.39625214 307.75705188 -127.9375 305.1875 C-131.02965748 302.90519329 -131.72724537 301.81826389 -132.9375 298.1875 C-133.02979915 296.5771188 -133.06482539 294.96316128 -133.06613445 293.35013771 C-133.0693589 292.34751353 -133.07258335 291.34488935 -133.0759055 290.31188262 C-133.0743569 289.20732958 -133.0728083 288.10277654 -133.07121277 286.9647522 C-133.07347833 285.79373722 -133.07574388 284.62272225 -133.07807809 283.41622198 C-133.08332477 280.16039086 -133.08406102 276.90459434 -133.08288372 273.64876032 C-133.08268003 270.13947813 -133.08819542 266.63020424 -133.09294128 263.1209259 C-133.10125534 256.24352196 -133.10399647 249.36612659 -133.10455366 242.48871805 C-133.10502847 236.89958576 -133.10708145 231.31045631 -133.11025429 225.72132492 C-133.11906296 209.88250559 -133.12367334 194.04369305 -133.12292381 178.20487125 C-133.12288386 177.35061335 -133.1228439 176.49635544 -133.12280273 175.61621094 C-133.12274141 174.33326336 -133.12274141 174.33326336 -133.12267885 173.02439766 C-133.12227233 159.16048855 -133.13184284 145.2966066 -133.1459411 131.43270536 C-133.1602958 117.20459816 -133.16721178 102.97650422 -133.16634732 88.7483896 C-133.16601504 80.75747619 -133.16877592 72.76659125 -133.17952538 64.77568436 C-133.18861847 57.972356 -133.19081546 51.16906901 -133.18401595 44.36573721 C-133.18074469 40.89376113 -133.18071581 37.42186446 -133.1893692 33.94989586 C-133.19704425 30.18793053 -133.19247401 26.42617563 -133.18473816 22.66421509 C-133.18988172 21.56412349 -133.19502529 20.4640319 -133.20032471 19.3306042 C-133.19572592 18.32276452 -133.19112712 17.31492484 -133.18638897 16.27654457 C-133.18660634 15.40823151 -133.18682371 14.53991845 -133.18704766 13.64529288 C-132.75937553 9.43315355 -131.63505608 6.8483426 -128.5625 3.9375 C-122.2820812 -0.24944587 -113.91703824 0.58652125 -106.671875 1.4609375 C-103.48676569 2.19489747 -101.87798656 3.24701344 -99.5625 5.5625 C-97.08132364 9.57055411 -96.81385132 12.74936045 -96.91577148 17.41503906 C-96.93586777 18.45581604 -96.95596405 19.49659302 -96.97666931 20.56890869 C-97.00370438 21.68570007 -97.03073944 22.80249146 -97.05859375 23.953125 C-97.09401024 25.67592682 -97.09401024 25.67592682 -97.13014221 27.43353271 C-97.20671073 31.10164966 -97.29076487 34.76955188 -97.375 38.4375 C-97.42822747 40.92446866 -97.48096783 43.4114478 -97.53320312 45.8984375 C-97.66231674 51.9949245 -97.79757656 58.09125204 -97.9375 64.1875 C-96.98012939 63.41349854 -96.02275879 62.63949707 -95.03637695 61.84204102 C-94.49785599 61.40666519 -93.95933502 60.97128937 -93.40449524 60.52272034 C-91.34882913 58.65170731 -90.31164487 56.62260492 -89.125 54.125 C-76.95287187 30.57114166 -55.33544248 11.88416557 -30.0625 3.75 C-20.0463841 0.86234542 -10.39595748 -0.11639552 0 0 Z"></path>
<path transform="translate(2737,232)" fill="#060606" d="M0 0 C1.36125 0.64195312 1.36125 0.64195312 2.75 1.296875 C21.28953269 10.6719796 33.51050797 26.40828357 40.08984375 45.87841797 C48.00866673 70.57788284 46.14833785 97.43362779 46.19923019 123.08327866 C46.21008985 128.4052518 46.23036842 133.72716541 46.25234985 139.04910278 C46.31371242 154.16307911 46.36843515 169.27704588 46.40136719 184.39111328 C46.41972405 192.78037039 46.448647 201.16952152 46.4893719 209.55870068 C46.51037188 213.98077917 46.52588975 218.40272482 46.52817917 222.8248558 C46.53032937 226.97021184 46.54623622 231.11528829 46.57256889 235.26055908 C46.57974089 236.7762307 46.58187307 238.29193625 46.57846642 239.807621 C46.43260831 252.81530933 46.43260831 252.81530933 52.5625 263.9375 C57.52482127 267.61603666 63.91373622 267.06840209 69.8125 266.875 C73.44135834 267.01730817 75.14005415 267.81298259 78 270 C79.92807685 273.85615369 79.27189373 278.57049833 79.3125 282.8125 C79.35600586 284.31006836 79.35600586 284.31006836 79.40039062 285.83789062 C79.46440054 293.22857374 79.46440054 293.22857374 77.12109375 297.12109375 C69.51428392 303.85935439 56.47259243 302.53216811 47 302 C36.52641636 300.45151907 28.47479745 296.71029257 21.71875 288.46484375 C14.44445027 278.03283664 10.72075001 266.02088463 7 254 C6.47792969 254.72703125 5.95585937 255.4540625 5.41796875 256.203125 C-14.64840046 283.61427733 -40.26721455 303.18097558 -74.375 308.75 C-105.61745161 313.31741835 -143.88638044 309.78113907 -170.2890625 291.05859375 C-188.73579761 277.0507704 -198.85726136 257.47467439 -202.34375 234.76049805 C-205.11895391 212.05586107 -202.64444383 189.03269553 -189 170 C-159.99755711 133.63944145 -108.66036957 129.28350635 -65.58886719 124.42456055 C-63.40974451 124.17958752 -61.23054459 123.93532515 -59.05126953 123.69171143 C-54.7048918 123.20545139 -50.3597556 122.70999772 -46.01583099 122.20227242 C-44.03476396 121.97424084 -42.05221796 121.75917133 -40.06964111 121.54466248 C-26.87406849 120.00662312 -10.00013429 117.91432323 -0.5625 107.625 C7.63916496 96.81266423 8.08113059 82.19114586 6.3125 69.1875 C4.03645685 56.74829197 -1.8984666 44.30927955 -12.015625 36.36328125 C-34.08023478 21.20472059 -63.82369111 17.71371741 -89.8125 22.125 C-108.27427824 25.68558088 -126.1693139 32.31221201 -138.04296875 47.63671875 C-144.24884868 56.91245826 -147.24282556 66.39321204 -148.78613281 77.3425293 C-149.68119198 83.04036227 -151.78144426 86.86694641 -155.92578125 90.8515625 C-162.43636721 94.45629371 -172.01560646 91.85310645 -179.0625 90.6875 C-180.16984497 90.51130127 -180.16984497 90.51130127 -181.29956055 90.33154297 C-184.0617498 89.83118572 -186.52933501 89.26066183 -188.99609375 87.89453125 C-192.67409153 80.95356268 -188.51100524 71.41011698 -186.5 64.5 C-185.95641846 62.6291272 -185.95641846 62.6291272 -185.40185547 60.72045898 C-177.75790564 35.27976659 -163.7389996 15.94854524 -140 3 C-99.3067332 -18.69707367 -41.53827083 -20.04463069 0 0 Z M3.0625 140.13671875 C-5.32841878 143.37974187 -13.67087679 145.74913197 -22.50390625 147.4609375 C-23.58507217 147.67363785 -24.6662381 147.8863382 -25.78016663 148.10548401 C-36.6823993 150.20606568 -47.64226158 151.85456515 -58.62731934 153.45294189 C-113.37202334 159.96565246 -113.37202334 159.96565246 -156.9765625 190.578125 C-158.52090185 192.9973364 -159.80350942 195.39291 -161 198 C-161.33644531 198.70769531 -161.67289063 199.41539062 -162.01953125 200.14453125 C-166.21667465 211.08776814 -165.66424824 226.5174521 -161.31640625 237.2734375 C-152.54754336 255.43565203 -139.65787132 267.13933143 -120.5078125 273.96875 C-94.45582292 281.6276868 -67.29079002 278.25701724 -43.49047852 265.28540039 C-20.90786146 252.3933175 -2.90495536 232.11848945 4.21484375 206.8359375 C10.01108597 184.75120443 8.20607469 161.57220112 7 139 C5.63047349 138.93985171 5.63047349 138.93985171 3.0625 140.13671875 Z"></path>
<path transform="translate(2136.576904296875,243.75244140625)" fill="#060606" d="M0 0 C17.77896405 15.76302411 25.77621212 37.96299935 27.4230957 61.24755859 C27.57120875 66.94600091 27.5670192 72.64271387 27.56494141 78.34277344 C27.56797729 80.07007434 27.57149992 81.79737445 27.57546997 83.52467346 C27.5833256 87.23064638 27.5884912 90.93660983 27.59176064 94.64258957 C27.5976996 100.51042333 27.61426637 106.37819737 27.63310242 112.2460022 C27.6394388 114.2595348 27.64576444 116.27306744 27.65207958 118.28660011 C27.65524539 119.29458696 27.6584112 120.3025738 27.66167295 121.3411057 C27.70366179 134.990577 27.73672852 148.64001913 27.74902344 162.28955078 C27.75741659 171.51303701 27.77994904 180.7363737 27.8183791 189.9597851 C27.83808822 194.83322935 27.85056122 199.70645034 27.84554482 204.57993698 C27.84088197 209.16511384 27.85479273 213.74986744 27.88255692 218.33495903 C27.88943972 220.01061679 27.88962683 221.68631859 27.88235664 223.36197472 C27.69461436 238.73222314 27.69461436 238.73222314 34.8605957 251.81005859 C41.17154998 255.35035002 45.88316835 255.34145625 53.0480957 255.02490234 C58.7208877 255.39914904 58.7208877 255.39914904 61.4230957 258.24755859 C62.13254169 262.04844741 62.0272492 265.76887935 61.9230957 269.62255859 C61.92567383 270.66412109 61.92825195 271.70568359 61.9309082 272.77880859 C61.80835368 282.36257205 61.80835368 282.36257205 58.4230957 286.24755859 C48.88215186 292.31906831 33.74567663 291.43848384 22.8684082 289.66943359 C12.15752926 286.60918247 4.63940961 278.93933504 -0.97924805 269.54833984 C-5.32046468 260.57932258 -7.88198605 250.81262053 -10.5769043 241.24755859 C-11.01518555 241.87919922 -11.4534668 242.51083984 -11.9050293 243.16162109 C-31.1911147 270.36597733 -55.72001057 290.57677165 -89.49780273 296.59008789 C-120.49700953 301.60926485 -159.16384033 298.88450176 -185.9519043 280.87255859 C-187.51357302 279.69018964 -189.05548189 278.48128443 -190.5769043 277.24755859 C-191.82020508 276.26529297 -191.82020508 276.26529297 -193.08862305 275.26318359 C-210.19496423 260.9074792 -218.07630972 239.96881408 -220.2644043 218.18505859 C-221.97565826 196.62325864 -219.55311899 174.03105235 -205.51049805 156.69677734 C-203.27215331 154.13143963 -200.96199022 151.67666456 -198.5769043 149.24755859 C-197.91174805 148.55791016 -197.2465918 147.86826172 -196.5612793 147.15771484 C-165.01666015 116.75688914 -109.98379884 115.35761356 -68.95288086 111.03442383 C-40.6989209 109.13618103 -40.6989209 109.13618103 -17.5769043 95.24755859 C-12.19357003 87.20662893 -11.20026536 77.89097066 -11.2644043 68.43505859 C-11.27286377 67.12021484 -11.27286377 67.12021484 -11.28149414 65.77880859 C-11.53100892 52.39888727 -15.46861188 38.82404089 -24.83081055 28.82958984 C-44.69348568 10.83320634 -72.93185355 8.02740696 -98.5769043 9.24755859 C-118.05435652 10.97228544 -139.61569061 17.42402485 -153.2565918 32.04833984 C-161.70783072 42.6233357 -165.1760132 54.61569175 -167.5769043 67.68505859 C-168.48310351 72.32004472 -169.78241798 75.59759466 -173.32299805 78.85302734 C-179.89439678 82.91886677 -190.35864732 80.19099703 -197.7019043 79.06005859 C-198.43626709 78.95935059 -199.17062988 78.85864258 -199.92724609 78.75488281 C-203.19569235 78.18887522 -205.25792478 77.54711685 -207.6940918 75.25927734 C-209.05573528 70.61402457 -207.78574642 66.84497257 -206.5769043 62.24755859 C-206.37548828 61.39145996 -206.17407227 60.53536133 -205.96655273 59.65332031 C-199.40769807 32.00946297 -187.29638814 9.06578959 -162.5612793 -6.43212891 C-117.76588916 -33.22583871 -40.92131598 -34.82857238 0 0 Z M-13.4128418 127.16552734 C-29.97096212 135.4445875 -48.72807772 137.63108849 -66.8269043 140.31005859 C-71.16604431 140.96368409 -75.50438181 141.62253662 -79.8425293 142.28271484 C-80.90281845 142.44376205 -81.9631076 142.60480927 -83.05552673 142.77073669 C-105.22090384 146.00312306 -105.22090384 146.00312306 -127.0144043 151.06005859 C-127.91070557 151.31086182 -128.80700684 151.56166504 -129.73046875 151.82006836 C-148.19503313 157.18106712 -166.19467089 165.4288337 -176.5769043 182.24755859 C-182.92374278 194.33132915 -183.75884663 209.21948555 -179.8894043 222.31005859 C-179.15910283 224.30453709 -178.39075648 226.28568975 -177.5769043 228.24755859 C-177.24948242 229.10349609 -176.92206055 229.95943359 -176.5847168 230.84130859 C-170.74483352 244.31140433 -158.39795905 254.68176598 -145.0144043 260.06005859 C-139.9234336 261.88039395 -134.91543488 263.38618218 -129.5769043 264.24755859 C-128.92077148 264.35841797 -128.26463867 264.46927734 -127.58862305 264.58349609 C-98.95489939 268.5738832 -69.56691217 260.70379676 -46.2644043 243.87255859 C-26.64907859 228.43238254 -13.84154373 207.74953647 -10.78709412 182.70443726 C-10.35871139 177.69713298 -10.45651003 172.67560497 -10.47924805 167.65380859 C-10.48066299 166.46654175 -10.48207794 165.2792749 -10.48353577 164.05603027 C-10.48910619 160.28651343 -10.50165325 156.5170573 -10.5144043 152.74755859 C-10.51942312 150.18245529 -10.52398536 147.61735105 -10.52807617 145.05224609 C-10.53906593 138.78399642 -10.55577449 132.51578185 -10.5769043 126.24755859 C-11.76993985 126.17302299 -11.76993985 126.17302299 -13.4128418 127.16552734 Z"></path>
<path transform="translate(3528.875,219.75)" fill="#060606" d="M0 0 C0.68619415 -0.00067474 1.37238831 -0.00134949 2.07937622 -0.00204468 C19.30569773 0.02478408 34.90577106 2.43128629 51.125 8.25 C52.17042969 8.61867187 53.21585938 8.98734375 54.29296875 9.3671875 C85.64265861 21.37697622 106.32970057 48.96135906 119.71875 78.59765625 C130.26825275 102.87871284 135.06087622 130.15839262 135.4375 156.5625 C135.45530518 157.35769043 135.47311035 158.15288086 135.49145508 158.97216797 C135.48510137 163.50871429 135.21087334 166.66662203 132.125 170.25 C127.58999072 172.7104075 123.24866271 172.52287184 118.22982788 172.48377991 C116.88514779 172.48528483 116.88514779 172.48528483 115.51330245 172.48682016 C112.50926807 172.48777282 109.50546765 172.47442938 106.50146484 172.46118164 C104.34798757 172.45898048 102.19450923 172.45767495 100.04103088 172.4571991 C95.40403634 172.45426518 90.76711226 172.44501607 86.1301384 172.43089485 C78.80303782 172.40864917 71.47596348 172.40054227 64.14883423 172.39439392 C52.56445003 172.38301071 40.98010465 172.36228127 29.39574206 172.33749622 C8.63788786 172.29316441 -12.11998008 172.26001419 -32.87786901 172.23725218 C-40.16698736 172.22882781 -47.45606754 172.2147859 -54.74516702 172.19627964 C-59.27185114 172.18566133 -63.79853488 172.17906178 -68.32522774 172.17347908 C-70.42997538 172.16999905 -72.53472094 172.1647747 -74.63945961 172.15771103 C-77.50425238 172.14830553 -80.36898904 172.14498902 -83.23379517 172.14320374 C-84.07376372 172.13892665 -84.91373227 172.13464957 -85.77915442 172.13024288 C-89.07181544 172.13350071 -91.72858194 172.20119398 -94.875 173.25 C-100.384329 182.34593916 -97.60412068 199.30413212 -95.25 209.1875 C-94.53976372 211.90421762 -93.74003868 214.57879258 -92.875 217.25 C-92.67132812 217.88454102 -92.46765625 218.51908203 -92.2578125 219.17285156 C-83.44873478 245.58649048 -64.51892125 265.1892484 -40.10644531 277.8347168 C-16.0641598 289.76722219 10.93871127 291.55404604 36.375 283 C61.84960386 273.15952445 76.60273318 256.38225587 88.125 232.25 C88.88911988 230.50611904 89.64271412 228.7574861 90.375 227 C93.22027739 220.39489178 98.77812128 216.31328692 105.125 213.25 C112.41530447 210.63554598 119.52006418 209.24796936 127.125 211.25 C130.25 212.8125 130.25 212.8125 132.125 215.25 C132.90193442 222.53480445 130.71248081 228.41350066 128.1875 235.1875 C127.77927002 236.29343506 127.37104004 237.39937012 126.95043945 238.53881836 C116.87605806 265.17350854 99.95717892 289.46536571 75.125 304.25 C74.48723633 304.62995117 73.84947266 305.00990234 73.19238281 305.40136719 C38.31261548 325.7716887 -2.18959684 327.17177117 -40.67578125 317.07421875 C-72.05293468 308.22575411 -97.40060297 288.39772286 -113.875 260.25 C-130.77807584 229.74837727 -136.3229682 194.26823188 -136.25 159.8125 C-136.24945618 158.8443335 -136.24891235 157.87616699 -136.24835205 156.87866211 C-136.19027846 134.35725969 -133.33510106 113.58703235 -125.875 92.25 C-125.64586914 91.58887207 -125.41673828 90.92774414 -125.18066406 90.24658203 C-113.39521557 56.98561745 -91.74203375 28.2186902 -59.875 12.25 C-40.86001728 3.23390707 -20.87050979 0.01848639 0 0 Z M-63.45410156 59.76220703 C-81.77794477 78.94871914 -95.22097103 107.09359445 -97.125 133.75 C-97.1241908 136.42296773 -97.1241908 136.42296773 -94.875 138.25 C-92.40180116 138.46388993 -90.03801589 138.55265638 -87.56216431 138.5553894 C-86.79965343 138.56400407 -86.03714255 138.57261873 -85.25152528 138.58149445 C-82.68281159 138.60797776 -80.11422859 138.62012737 -77.54541016 138.63232422 C-75.70925705 138.64816212 -73.87311085 138.66481862 -72.03697205 138.68223572 C-67.03908685 138.72676332 -62.0411995 138.75828615 -57.04319811 138.78644323 C-53.92310106 138.8046348 -50.80303638 138.82564645 -47.68296432 138.84769058 C-36.80496207 138.92453701 -25.92695296 138.99102426 -15.04882812 139.04785156 C-4.89785279 139.10114651 5.25278927 139.17679615 15.40353429 139.26293361 C24.10923106 139.33583902 32.81494044 139.39329436 41.52082407 139.43866169 C46.72453394 139.46603685 51.92801897 139.49970864 57.13157272 139.54885483 C62.0251022 139.59453005 66.91836086 139.62101581 71.81208611 139.63261604 C73.61006491 139.64015692 75.40802973 139.65459414 77.20589256 139.67636299 C79.65700482 139.70497395 82.10694764 139.70889854 84.55819702 139.70651245 C85.27278875 139.72069053 85.98738047 139.7348686 86.72362649 139.74947631 C90.06503777 139.72046441 91.84719151 139.4554941 94.56472206 137.44534492 C96.83533167 134.25054792 96.72270527 131.21332233 96.625 127.4375 C96.60578491 126.3074353 96.60578491 126.3074353 96.58618164 125.15454102 C95.63100239 98.1459265 78.59109785 72.915018 59.84765625 54.6640625 C23.91654585 22.80548829 -30.25963774 25.89096288 -63.45410156 59.76220703 Z"></path>
<path transform="translate(2371.4375,219.5625)" fill="#060606" d="M0 0 C0.73484619 0.00304138 1.46969238 0.00608276 2.22680664 0.00921631 C32.4378016 0.19283257 64.35117417 6.44988537 86.5625 28.4375 C105.132851 49.36183916 108.55220069 74.55928933 110.5625 101.4375 C110.61470703 102.11828613 110.66691406 102.79907227 110.72070312 103.50048828 C113.40175423 138.97476638 112.83329405 174.61356708 112.61244965 210.16162014 C112.57664957 215.92695073 112.54602823 221.69228395 112.5186739 227.45766068 C112.46427114 238.87763646 112.38980522 250.29731319 112.29702759 261.71704102 C112.26441049 265.77122581 112.23804466 269.82537829 112.21688843 273.87963867 C112.19128023 278.66056547 112.15100678 283.44115081 112.09950256 288.22186661 C112.08280726 289.98924853 112.0711514 291.75668611 112.06483459 293.52413559 C112.05526416 295.94923309 112.02737905 298.37345674 111.99487305 300.79833984 C111.99630908 301.50427528 111.99774511 302.21021072 111.99922466 302.93753815 C111.91670774 307.25180467 111.19793236 309.99876722 108.5625 313.4375 C104.12794671 315.65477665 98.0571684 314.62249503 93.1875 314.625 C91.94226562 314.63724609 90.69703125 314.64949219 89.4140625 314.66210938 C87.6196875 314.66500977 87.6196875 314.66500977 85.7890625 314.66796875 C84.69158691 314.67207764 83.59411133 314.67618652 82.46337891 314.68041992 C79.55880477 314.43719056 77.95959594 314.05747834 75.5625 312.4375 C72.27652935 307.50854402 72.43979584 303.00400929 72.45570374 297.1776886 C72.45626044 296.45672176 72.45681715 295.73575492 72.45739073 294.9929406 C72.4604218 292.58160367 72.47060289 290.17035006 72.48071289 287.7590332 C72.4842705 286.02710558 72.48735608 284.29517693 72.49000549 282.56324768 C72.49655655 278.83157964 72.50611756 275.09993555 72.51790047 271.36828041 C72.53625057 265.4420741 72.54581036 259.51587353 72.55381775 253.58964539 C72.57791588 236.7359257 72.61348209 219.88224104 72.65844727 203.02856445 C72.6832013 193.72117465 72.70044169 184.41379916 72.71000665 175.10638112 C72.71541845 170.1938588 72.72461438 165.28141214 72.74339485 160.36892128 C74.8361917 102.21797314 74.8361917 102.21797314 50.765625 51.453125 C41.55510141 42.55749111 28.77012243 38.27217545 16.5625 35.4375 C15.13744141 35.09912109 15.13744141 35.09912109 13.68359375 34.75390625 C-10.17856904 29.94164811 -34.2055564 35.07940794 -54.4375 48.4375 C-75.86363036 63.76468714 -89.00020171 84.38972653 -93.94651794 110.08139038 C-96.7227837 129.05856497 -95.61215891 148.93187756 -95.66729546 168.07636642 C-95.68299933 173.49915299 -95.70693439 178.92188563 -95.73219299 184.34463501 C-95.80277003 199.74534693 -95.86339292 215.14608566 -95.91430664 230.546875 C-95.94263489 239.09432345 -95.9780029 247.64171408 -96.02096039 256.18910182 C-96.04761392 261.57426762 -96.06558866 266.9593685 -96.07699764 272.34458709 C-96.08614438 275.68938515 -96.10351182 279.03410354 -96.12317657 282.37885475 C-96.13062405 283.92355531 -96.13473144 285.46827632 -96.13517189 287.01299477 C-96.1447504 305.60173076 -96.1447504 305.60173076 -100.8125 311.375 C-106.66396843 315.97258234 -114.32988969 314.74791075 -121.4375 314.4375 C-126.64492288 313.79969162 -130.86417081 312.43122086 -134.4375 308.4375 C-136.56611506 301.89810065 -136.7226636 295.78146798 -136.69819641 288.94410706 C-136.70202196 287.80431064 -136.70584751 286.66451423 -136.70978898 285.49017853 C-136.72008742 281.68033544 -136.71613277 277.87064395 -136.7121582 274.06079102 C-136.71541383 271.32547573 -136.72162563 268.59016881 -136.72764587 265.8548584 C-136.74037557 259.20204956 -136.74218876 252.54928112 -136.73984561 245.89646215 C-136.7380605 240.48768648 -136.73981624 235.07892305 -136.74407005 229.67014885 C-136.74466524 228.89950549 -136.74526043 228.12886213 -136.74587366 227.33486594 C-136.74708544 225.76916679 -136.74829958 224.20346764 -136.74951603 222.6377685 C-136.76038473 207.96488616 -136.75823215 193.29202681 -136.75213119 178.61914318 C-136.74696161 165.20442722 -136.75821974 151.78978386 -136.77722941 138.37508226 C-136.79661405 124.58975739 -136.80486277 110.80446685 -136.80110615 97.01912826 C-136.79919519 89.28413149 -136.80167153 81.54919653 -136.81582069 73.81421089 C-136.82774338 67.22995279 -136.82912938 60.64579456 -136.81703053 54.06153507 C-136.81114821 50.70439101 -136.81165664 47.34757894 -136.82203293 43.9904232 C-136.83248417 40.34607195 -136.82441202 36.70221026 -136.8117218 33.05787659 C-136.81909609 32.00397454 -136.82647037 30.9500725 -136.83406812 29.86423403 C-136.78890262 23.69187239 -136.22846211 18.03689962 -133.4375 12.4375 C-127.13353966 7.12890182 -118.21174231 8.07868882 -110.4375 8.4375 C-105.89700842 8.95510294 -102.54481526 9.55164779 -98.9375 12.4375 C-96.11747144 16.19753808 -96.32080706 18.73103777 -96.33984375 23.4140625 C-96.3412587 24.09931 -96.34267365 24.7845575 -96.34413147 25.49057007 C-96.34973325 27.68125761 -96.36228594 29.8718433 -96.375 32.0625 C-96.38001478 33.54687352 -96.38457772 35.03124865 -96.38867188 36.515625 C-96.39970323 40.15628315 -96.41696901 43.79688164 -96.4375 47.4375 C-95.65246094 46.58027344 -94.86742188 45.72304688 -94.05859375 44.83984375 C-91.3444506 41.88108569 -88.61557777 38.93632263 -85.88085938 35.99658203 C-84.78027857 34.80776115 -83.69198289 33.60755467 -82.609375 32.40234375 C-61.63920593 9.94218898 -30.02634312 -0.26556116 0 0 Z"></path>
<path transform="translate(4033.41552734375,241.12255859375)" fill="#060606" d="M0 0 C21.74553833 17.74030134 29.7414078 44.96684735 32.58447266 71.87744141 C33.66840851 82.73734593 33.73948971 93.53381147 33.74560547 104.43383789 C33.7502433 106.37673535 33.75526923 108.31963192 33.76065063 110.26252747 C33.77367092 115.50166252 33.78019738 120.74078483 33.78466129 125.9799335 C33.7876047 129.25637464 33.79171149 132.53281238 33.79616547 135.80925179 C33.80980375 146.07146894 33.8194922 156.33367823 33.82336736 166.59590381 C33.82786012 178.42543963 33.84547966 190.2548606 33.87436795 202.08436149 C33.89596641 211.24727662 33.90607041 220.41015935 33.90740848 229.57309967 C33.90845643 235.03931716 33.91436429 240.50542613 33.93222809 245.97161674 C33.94868024 251.10417685 33.9508782 256.23654641 33.94208908 261.36912346 C33.94131758 263.25169891 33.94567628 265.13428453 33.95554733 267.01683426 C33.96823426 269.5869664 33.96240829 272.15641993 33.95196533 274.72654724 C33.96002174 275.4706104 33.96807814 276.21467356 33.97637868 276.98128408 C33.93172304 281.68169974 33.04622799 284.87624562 30.58447266 288.87744141 C25.07974653 293.86609946 18.5426981 293.20217584 11.55712891 293.09228516 C5.4973026 292.76456594 1.55818722 291.85115597 -2.85302734 287.43994141 C-5.08527643 283.7790529 -5.54155298 280.74359407 -5.52905273 276.49971008 C-5.52894133 275.19062557 -5.52894133 275.19062557 -5.52882767 273.85509491 C-5.52366512 272.90252052 -5.51850258 271.94994614 -5.51318359 270.96850586 C-5.51104418 269.4486974 -5.51104418 269.4486974 -5.50886154 267.89818573 C-5.50311483 264.51233881 -5.49043508 261.12655118 -5.47802734 257.74072266 C-5.4730977 255.34258632 -5.46873509 252.94444877 -5.46490479 250.54631042 C-5.4562906 245.42718823 -5.44532634 240.30807877 -5.43273926 235.18896484 C-5.40170714 221.8208205 -5.40023771 208.4526472 -5.39990234 195.08447266 C-5.39986552 194.41713246 -5.3998287 193.74979226 -5.39979076 193.06222963 C-5.39887008 169.528693 -5.40952332 145.99545718 -5.62304688 122.46273804 C-5.65301794 119.11036966 -5.67400833 115.75814828 -5.68652344 112.40567017 C-5.77474323 90.64052693 -5.98670789 68.97571446 -15.41552734 48.87744141 C-15.85638672 47.92740234 -16.29724609 46.97736328 -16.75146484 45.99853516 C-24.26267987 31.07985116 -36.03349438 21.7788343 -51.41552734 15.87744141 C-76.35122797 8.50812782 -103.35377276 10.71216074 -126.36083984 22.91650391 C-148.05748844 35.01582574 -162.29696888 54.99613079 -169.29052734 78.62744141 C-175.75805864 101.89856267 -174.53421019 126.10971207 -174.42956161 150.044487 C-174.40619508 155.44991449 -174.39310928 160.85533864 -174.38186646 166.26080322 C-174.34867009 181.61548676 -174.30656899 196.97011277 -174.24414062 212.32470703 C-174.20960599 220.8398484 -174.18581056 229.35494975 -174.17393219 237.87015367 C-174.16585728 243.23981929 -174.14467616 248.60921938 -174.11372733 253.97879934 C-174.09770108 257.31368825 -174.09430778 260.64850142 -174.09449768 263.98342514 C-174.09208088 265.52534824 -174.08452575 267.06727344 -174.07136917 268.6091423 C-174.05411998 270.71882027 -174.05557509 272.82771656 -174.06149292 274.93743896 C-174.05742872 276.11570126 -174.05336452 277.29396355 -174.04917717 278.50793076 C-174.49442715 282.6031234 -175.52497575 285.22067848 -177.41552734 288.87744141 C-181.76220678 291.91000846 -186.22407678 292.58257416 -191.41552734 292.87744141 C-192.74003906 292.95671875 -192.74003906 292.95671875 -194.09130859 293.03759766 C-200.25935509 293.2338149 -204.93136105 292.81538764 -210.41552734 289.87744141 C-214.30128999 284.39627142 -213.83569831 278.70088868 -213.79647827 272.25596619 C-213.80115824 271.07830439 -213.80583822 269.90064259 -213.81066 268.68729407 C-213.82054523 265.42673522 -213.81700164 262.16651226 -213.80770135 258.90596187 C-213.80090962 255.38649335 -213.81139264 251.86707 -213.81964111 248.34761047 C-213.83297892 241.45655065 -213.83010064 234.56558886 -213.82140319 227.67452519 C-213.81462779 222.07449281 -213.8137093 216.4744879 -213.81697464 210.87445259 C-213.81743434 210.07740511 -213.81789404 209.28035762 -213.81836767 208.45915719 C-213.81932684 206.83997904 -213.82029948 205.2208009 -213.82128544 203.60162277 C-213.82983933 188.42001178 -213.82000494 173.23845514 -213.80388434 158.05685306 C-213.79047858 145.02851611 -213.79281137 132.00025934 -213.80664062 118.97192383 C-213.82269202 103.84305344 -213.82901807 88.71423067 -213.81980383 73.58535296 C-213.81884818 71.97244013 -213.81790507 70.3595273 -213.81697464 68.74661446 C-213.81651181 67.95302419 -213.81604899 67.15943392 -213.81557214 66.34179546 C-213.81298111 60.74756065 -213.8173556 55.15335603 -213.8244133 49.5591259 C-213.83282349 42.74303516 -213.83055823 35.92704809 -213.81457107 29.11096924 C-213.80668221 25.63286742 -213.80360712 22.15493849 -213.81351852 18.67683792 C-213.82168275 14.90836231 -213.81147375 11.14037712 -213.79647827 7.37193298 C-213.80317044 6.2699968 -213.8098626 5.16806062 -213.81675756 4.03273243 C-213.74543226 -5.17073572 -213.74543226 -5.17073572 -210.41552734 -9.12255859 C-205.02586816 -14.15290716 -197.91060973 -13.39639446 -190.94287109 -13.34521484 C-185.75736133 -13.01789031 -180.72704061 -12.16466472 -176.73974609 -8.64208984 C-173.69353212 -5.14658177 -174.28869756 -1.44489838 -174.31787109 2.94775391 C-174.31928604 3.74398163 -174.32070099 4.54020935 -174.32215881 5.36056519 C-174.3277639 7.90789521 -174.34031721 10.45513787 -174.35302734 13.00244141 C-174.35804169 14.72770056 -174.36260471 16.45296108 -174.36669922 18.17822266 C-174.37773497 22.41132932 -174.39500298 26.64437054 -174.41552734 30.87744141 C-171.31665724 27.81407754 -168.48128154 24.78988152 -165.85302734 21.31494141 C-147.65761292 -1.57386963 -122.99164138 -16.50182471 -93.92456055 -20.72558594 C-62.37014719 -24.29529832 -25.62903819 -20.15910568 0 0 Z"></path>
<path transform="translate(1384.2890625,228.62890625)" fill="#060606" d="M0 0 C1.00595215 0.0002417 1.00595215 0.0002417 2.03222656 0.00048828 C4.07181858 -0.00387604 6.10922994 -0.04016103 8.1484375 -0.078125 C10.07816406 -0.08392578 10.07816406 -0.08392578 12.046875 -0.08984375 C13.22813965 -0.09806152 14.4094043 -0.1062793 15.62646484 -0.11474609 C19.31552125 0.46632263 20.43795074 1.47642387 22.7109375 4.37109375 C23.93640097 6.82202069 23.83848489 8.40680549 23.84236526 11.14787769 C23.84620641 12.16244441 23.85004755 13.17701112 23.8540051 14.22232229 C23.85313862 15.34535196 23.85227213 16.46838163 23.85137939 17.6254425 C23.85435052 18.81193726 23.85732164 19.99843202 23.8603828 21.22088116 C23.86757848 24.52458332 23.8702433 27.82823349 23.87098026 31.13193977 C23.87282789 34.69100332 23.88037376 38.25005553 23.88711548 41.80911255 C23.90071145 49.59627001 23.90672552 57.38342233 23.91112614 65.17058969 C23.91388649 70.03076744 23.91812347 74.8909432 23.92263031 79.75111961 C23.93482475 93.2011989 23.94512364 106.65127658 23.9485054 120.10136127 C23.94883475 121.39323151 23.94883475 121.39323151 23.94917075 122.71120013 C23.94949817 124.00620468 23.94949817 124.00620468 23.9498322 125.32737094 C23.95027567 127.07688987 23.95072223 128.8264088 23.95117188 130.57592773 C23.9513933 131.44375408 23.95161473 132.31158042 23.95184287 133.20570453 C23.95579156 147.27015179 23.97324693 161.33454726 23.9965314 175.39897452 C24.02023114 189.83045241 24.03270663 204.26190431 24.03387332 218.69340199 C24.03479087 226.79948348 24.04056323 234.90549751 24.05869293 243.01156044 C24.07407538 249.91373927 24.07922541 256.81582979 24.07095483 263.7180225 C24.06704167 267.2406609 24.06801012 270.76312136 24.08201218 274.28573799 C24.0970449 278.1025007 24.08890425 281.91901146 24.07843018 285.73579407 C24.08648658 286.85213157 24.09454298 287.96846908 24.10284352 289.118635 C24.04190296 298.57333762 24.04190296 298.57333762 20.7109375 302.37109375 C15.65131793 305.74417346 9.71510617 304.7401669 3.7734375 304.74609375 C2.48501953 304.77058594 1.19660156 304.79507812 -0.13085938 304.8203125 C-1.36771484 304.82417969 -2.60457031 304.82804687 -3.87890625 304.83203125 C-5.01191162 304.84024902 -6.14491699 304.8484668 -7.31225586 304.85693359 C-10.93984508 304.26488057 -12.07383015 303.24858522 -14.2890625 300.37109375 C-15.2683328 297.43328285 -15.41614121 295.54710524 -15.42049026 292.48687935 C-15.42433141 291.47380498 -15.42817255 290.46073061 -15.4321301 289.41695702 C-15.43126362 288.30073114 -15.43039713 287.18450526 -15.42950439 286.03445435 C-15.43247552 284.85118872 -15.43544664 283.66792309 -15.4385078 282.44880092 C-15.4456955 279.15875962 -15.44836768 275.86877052 -15.44910526 272.5787251 C-15.45095478 269.03263084 -15.45850155 265.48654792 -15.46524048 261.94046021 C-15.4788279 254.18435271 -15.484849 246.42825038 -15.48925114 238.67213297 C-15.49201257 233.83087841 -15.49624971 228.98962586 -15.50075531 224.14837265 C-15.51294794 210.74886513 -15.52324764 197.34935922 -15.5266304 183.94984627 C-15.52684997 183.09210218 -15.52706953 182.23435809 -15.52729575 181.35062175 C-15.52762317 180.06090177 -15.52762317 180.06090177 -15.5279572 178.74512684 C-15.52840067 177.00277336 -15.52884723 175.26041988 -15.52929688 173.51806641 C-15.5295183 172.65379618 -15.52973973 171.78952595 -15.52996787 170.89906572 C-15.53391728 156.88964742 -15.55137566 142.8802811 -15.5746564 128.87088288 C-15.59835599 114.49361391 -15.6108316 100.11637104 -15.61199832 85.73908222 C-15.6129158 77.66431465 -15.61868664 69.58961481 -15.63681793 61.51486588 C-15.65220008 54.64015954 -15.65735054 47.76554186 -15.64907983 40.89082159 C-15.64516675 37.38235284 -15.64613477 33.87406274 -15.66013718 30.36561584 C-15.67517021 26.56423305 -15.66702916 22.76310322 -15.65655518 18.96170044 C-15.66461158 17.849936 -15.67266798 16.73817156 -15.68096852 15.59271729 C-15.60173143 3.34867527 -11.99368052 0.10837663 0 0 Z"></path>
<path transform="translate(3731.9375,228.625)" fill="#060606" d="M0 0 C1.93262695 -0.03673828 1.93262695 -0.03673828 3.90429688 -0.07421875 C5.14115234 -0.07808594 6.37800781 -0.08195313 7.65234375 -0.0859375 C8.78534912 -0.09415527 9.91835449 -0.10237305 11.08569336 -0.11083984 C14.0625 0.375 14.0625 0.375 16.33813477 1.96630859 C20.82977754 8.24049062 20.34726854 15.47396288 20.31646729 22.87548828 C20.31958727 24.02809206 20.32270725 25.18069584 20.32592177 26.36822701 C20.3325034 29.55419343 20.33015543 32.7400066 20.32394934 35.92596912 C20.31941606 39.36705642 20.32641295 42.80812332 20.33190918 46.24920654 C20.34079548 52.98503922 20.33888457 59.72082729 20.3330839 66.4566617 C20.32856441 71.93174384 20.32795575 77.4068135 20.33013153 82.88189697 C20.330438 83.66157935 20.33074446 84.44126173 20.33106022 85.24457085 C20.33169968 86.828554 20.3323481 88.41253714 20.3330054 89.99652028 C20.33870646 104.84435969 20.33215432 119.69217438 20.32140467 134.54000974 C20.31246936 147.27603449 20.31402146 160.01202278 20.32324219 172.74804688 C20.33394877 187.5432972 20.33815716 202.33852587 20.33201766 217.13377953 C20.33138057 218.71188736 20.33075183 220.28999519 20.33013153 221.86810303 C20.32982298 222.64453222 20.32951443 223.42096142 20.32919653 224.22091877 C20.32747075 229.68848321 20.33038216 235.15603389 20.33509064 240.62359619 C20.34070378 247.28806958 20.3391739 253.95249586 20.32852915 260.61696386 C20.32327827 264.01630336 20.32120572 267.41556437 20.32782745 270.81490326 C20.33328445 274.50151795 20.32644654 278.18791117 20.31646729 281.87451172 C20.32092873 282.94659441 20.32539017 284.0186771 20.32998681 285.12324715 C20.26221807 298.01222423 20.26221807 298.01222423 15.82617188 302.77709961 C10.75381016 305.70983878 5.28123474 304.98872154 -0.4375 304.9375 C-1.66082031 304.96134766 -2.88414062 304.98519531 -4.14453125 305.00976562 C-13.04699745 304.99517142 -13.04699745 304.99517142 -17.21875 302.08984375 C-19.70474008 298.16310943 -20.06229278 295.03204664 -20.06892776 290.43579388 C-20.07276891 289.43589544 -20.07661005 288.435997 -20.0805676 287.40579861 C-20.07970112 286.30941361 -20.07883463 285.2130286 -20.07794189 284.0834198 C-20.08091302 282.91704509 -20.08388414 281.75067037 -20.0869453 280.54895097 C-20.09412466 277.31064405 -20.09680454 274.07236945 -20.09754276 270.83405578 C-20.09939431 267.34179266 -20.10694212 263.84954102 -20.11367798 260.35728455 C-20.1272573 252.7209329 -20.13328528 245.0845865 -20.13768864 237.44822478 C-20.14045151 232.68015097 -20.14468893 227.91207918 -20.14919281 223.14400673 C-20.16138453 209.94262284 -20.17168431 196.74124058 -20.1750679 183.53985119 C-20.17528747 182.69501579 -20.17550703 181.85018039 -20.17573325 180.97974392 C-20.17595153 180.13288941 -20.17616981 179.2860349 -20.1763947 178.41351813 C-20.17683817 176.69747237 -20.17728473 174.98142662 -20.17773438 173.26538086 C-20.1779558 172.41416321 -20.17817723 171.56294557 -20.17840537 170.68593345 C-20.1823539 156.89132485 -20.19981001 143.09676905 -20.2230939 129.30218085 C-20.24680604 115.13957289 -20.25926968 100.97699143 -20.26043582 86.8143633 C-20.26135261 78.86250737 -20.26710606 70.91072026 -20.28525543 62.95888329 C-20.30065451 56.18819574 -20.30577801 49.41759829 -20.29751733 42.64689656 C-20.29361023 39.19285417 -20.29454317 35.73899322 -20.30857468 32.28497314 C-20.32123499 28.53900215 -20.31544904 24.79349855 -20.30499268 21.04753113 C-20.31304908 19.95783828 -20.32110548 18.86814544 -20.32940602 17.7454316 C-20.29093999 11.86318985 -19.89557465 7.52059555 -16.9375 2.375 C-11.87788043 -0.99807971 -5.94166867 0.00592685 0 0 Z"></path>
<path transform="translate(2106,718)" fill="#000000" d="M0 0 C5.94 0 11.88 0 18 0 C21.49523737 6.84514584 24.69172667 13.73923832 27.67578125 20.8203125 C28.11377548 21.85208618 28.55176971 22.88385986 29.0030365 23.94689941 C29.9480082 26.17375881 30.89157355 28.40121542 31.8338623 30.62921143 C34.12894038 36.05522466 36.43304749 41.47740274 38.73624039 46.89997482 C39.54057411 48.79400791 40.34452602 50.68820269 41.14840698 52.58242798 C46.81931013 65.94263883 52.53135409 79.28516247 58.25 92.625 C58.74513092 93.78076538 59.24026184 94.93653076 59.75039673 96.12731934 C65.05399454 108.50697014 70.37381469 120.87927248 75.734375 133.234375 C76.18508362 134.2740744 76.63579224 135.3137738 77.10015869 136.38497925 C79.21736602 141.26863784 81.33802234 146.15073133 83.46582031 151.02978516 C84.20652166 152.7359412 84.94708997 154.44215501 85.6875 156.1484375 C86.02682556 156.92257996 86.36615112 157.69672241 86.71575928 158.49432373 C89 163.77294987 89 163.77294987 89 166 C82.4 166 75.8 166 69 166 C64.93242446 157.32128402 61.07373862 148.59793833 57.42041016 139.73901367 C56.60908099 137.77394356 55.79104239 135.81174949 54.97265625 133.84960938 C54.45272604 132.59391512 53.93317942 131.33806195 53.4140625 130.08203125 C52.9495166 128.96030518 52.4849707 127.8385791 52.00634766 126.68286133 C51 124 51 124 51 122 C22.95 122 -5.1 122 -34 122 C-34.33 123.65 -34.66 125.3 -35 127 C-35.4882541 128.39688241 -36.01661985 129.78033302 -36.58227539 131.14770508 C-36.90253189 131.92813675 -37.22278839 132.70856842 -37.55274963 133.51264954 C-37.89756882 134.3399205 -38.242388 135.16719147 -38.59765625 136.01953125 C-38.95137802 136.87810226 -39.30509979 137.73667328 -39.66954041 138.6212616 C-40.79630246 141.35344153 -41.92930665 144.0829821 -43.0625 146.8125 C-43.82918966 148.66844898 -44.59547041 150.52456694 -45.36132812 152.38085938 C-47.23539391 156.92288014 -49.11788312 161.46127621 -51 166 C-57.6 166 -64.2 166 -71 166 C-67.6252725 155.87581751 -67.6252725 155.87581751 -65.78613281 151.66845703 C-65.37371338 150.71964157 -64.96129395 149.77082611 -64.53637695 148.79325867 C-64.09640381 147.79156143 -63.65643066 146.7898642 -63.203125 145.7578125 C-62.73769287 144.68944656 -62.27226074 143.62108063 -61.79272461 142.52033997 C-60.79776659 140.23751428 -59.80109716 137.95543387 -58.80285645 135.67404175 C-56.70031907 130.86870836 -54.60612834 126.05975389 -52.51165771 121.25090027 C-51.46375649 118.84497537 -50.41545847 116.43922324 -49.36676025 114.03364563 C-45.29192623 104.68346855 -41.25622082 95.31724285 -37.25 85.9375 C-36.08376576 83.20945037 -34.9170235 80.48161834 -33.75 77.75390625 C-33.45746338 77.07012909 -33.16492676 76.38635193 -32.86352539 75.68185425 C-22.03997384 50.39823809 -11.1444967 25.14398807 0 0 Z M8 21 C7.28076395 22.73462813 6.56152935 24.46925686 5.84230042 26.20388794 C5.18626644 27.78607103 4.53020878 29.36824431 3.87413025 30.95040894 C2.0066893 35.45393761 0.13968838 39.95764794 -1.7265625 44.46166992 C-5.36915074 53.25148032 -9.0144583 62.04010836 -12.67506409 70.82243347 C-14.2417278 74.58149306 -15.8063763 78.34138993 -17.37088013 82.10134888 C-18.12220919 83.90537932 -18.87454528 85.70899069 -19.62789917 87.51217651 C-20.68155565 90.0344122 -21.73176315 92.55805835 -22.78125 95.08203125 C-23.25039574 96.20120438 -23.25039574 96.20120438 -23.72901917 97.34298706 C-25.06420318 100.56257672 -26.15206536 103.60826142 -27 107 C-3.57 107 19.86 107 44 107 C42.12074079 100.73580263 40.29606597 94.91757426 37.734375 88.9765625 C37.423862 88.24406281 37.113349 87.51156311 36.79342651 86.75686646 C35.78374293 84.37750721 34.76697114 82.00125238 33.75 79.625 C32.3130816 76.24825424 30.87934966 72.87015766 29.4453125 69.4921875 C29.07961151 68.63226196 28.71391052 67.77233643 28.33712769 66.88635254 C25.75004044 60.79510111 23.20365538 54.68796379 20.6796875 48.5703125 C20.33587036 47.73831329 19.99205322 46.90631409 19.63781738 46.04910278 C18.30502282 42.82333461 16.97234553 39.59755872 15.64880371 36.36798096 C14.74155386 34.15496474 13.8283923 31.94447339 12.9140625 29.734375 C12.51355179 28.74958664 12.51355179 28.74958664 12.10494995 27.74490356 C10.97566295 25.02781211 10.10332366 23.10332366 8 21 Z"></path>
<path transform="translate(2757,707)" fill="#000000" d="M0 0 C5.61 0 11.22 0 17 0 C17 58.41 17 116.82 17 177 C11.39 177 5.78 177 0 177 C-0.495 169.575 -0.495 169.575 -1 162 C-2.216875 163.340625 -3.43375 164.68125 -4.6875 166.0625 C-14.16610762 175.54110762 -25.60682798 180.16450534 -38.8659668 180.38037109 C-48.54004811 180.36195543 -57.01108548 179.99507312 -66 176 C-66.94875 175.5875 -67.8975 175.175 -68.875 174.75 C-82.65333822 168.01392354 -91.50104311 155.98086471 -96.4375 141.6875 C-100.81277132 124.6220478 -99.16933412 106.26020872 -90.875 90.75 C-82.61586254 77.67448133 -70.32287179 68.79366586 -55.17431641 65.34863281 C-39.49936745 62.83529045 -25.18466568 65.01895566 -11.546875 73.046875 C-7.71102207 75.98848001 -4.41809945 79.58190055 -1 83 C-0.67 55.61 -0.34 28.22 0 0 Z M-71.81640625 93.09765625 C-79.77107802 104.08267916 -82.0359788 117.38060887 -80.3125 130.625 C-78.19967374 142.27334475 -73.53882724 151.71774166 -64.25 159.3125 C-54.00079122 166.30768242 -43.08176543 167.32473004 -31 166 C-19.45835612 163.58304399 -10.93117445 156.28777377 -4 147 C2.45841205 135.93662552 3.88564832 122.5416117 0.75 110.1875 C-3.13952371 97.8409385 -10.10552282 88.72340093 -21.4453125 82.15625 C-39.01562294 74.20393824 -59.2736668 78.6128152 -71.81640625 93.09765625 Z"></path>
<path transform="translate(1502,726)" fill="#000000" d="M0 0 C3.59968802 2.77494937 6.83847829 5.74044661 10 9 C10.74765625 9.74765625 11.4953125 10.4953125 12.265625 11.265625 C12.83796875 11.83796875 13.4103125 12.4103125 14 13 C12.47317422 17.01130561 9.9985939 18.78586892 6.5625 21.25 C5.11037109 22.30960938 5.11037109 22.30960938 3.62890625 23.390625 C1 25 1 25 -2 25 C-3.5078125 23.4609375 -3.5078125 23.4609375 -5.125 21.375 C-13.02791406 11.97783748 -25.32390036 5.83716942 -37.57348633 4.77734375 C-57.82269031 3.94225081 -74.79005038 7.04426729 -90.75 20.5625 C-100.15456702 29.61062571 -106.09009987 40.61040084 -110 53 C-110.23332031 53.73089844 -110.46664063 54.46179688 -110.70703125 55.21484375 C-115.59617257 73.54033029 -113.18438069 94.96832905 -104.140625 111.5546875 C-94.70481588 127.39075474 -82.06099356 138.47731646 -64.02758789 143.55541992 C-46.41423393 147.93672458 -27.6634645 145.92981731 -12 136.75 C-6.49958707 132.96950471 -1.02542238 128.05084476 2 122 C5.82990706 122.64743667 8.5283898 124.45311237 11.75 126.5625 C12.73484375 127.20316406 13.7196875 127.84382812 14.734375 128.50390625 C15.48203125 128.99761719 16.2296875 129.49132812 17 130 C12.60128878 142.49584133 0.03669998 150.29913118 -11.375 155.8125 C-22.37831448 161.04093724 -33.65384082 162.54505129 -45.75 162.4375 C-46.97428711 162.42847656 -48.19857422 162.41945313 -49.45996094 162.41015625 C-73.66583907 161.94970097 -94.4246763 152.57454063 -111.328125 135.07421875 C-119.69021196 125.74379488 -125.0763204 114.80876648 -129 103 C-129.3403125 101.98550781 -129.680625 100.97101563 -130.03125 99.92578125 C-135.91470028 78.21693925 -133.3572769 51.97081318 -123 32 C-110.49863709 10.58867448 -92.54744329 -3.45054564 -68.8671875 -10.30859375 C-45.73410644 -15.88700703 -20.13176051 -12.85609113 0 0 Z"></path>
<path transform="translate(1683.8125,779.1875)" fill="#000000" d="M0 0 C10.93081886 7.49905014 17.30884444 17.81474198 21.0625 30.4375 C22.1875 36.8125 22.1875 36.8125 22.1875 54.8125 C-7.8425 54.8125 -37.8725 54.8125 -68.8125 54.8125 C-64.57105128 70.7179327 -61.12632962 80.86185131 -47.19921875 89.41796875 C-37.83134394 94.04359988 -26.74768062 94.49920442 -16.6484375 92.04296875 C-11.96489955 90.26718624 -7.83263989 87.80423201 -3.8125 84.8125 C-2.94625 84.173125 -2.08 83.53375 -1.1875 82.875 C1.29336164 80.72056753 3.21947459 78.43653389 5.1875 75.8125 C8.89253641 76.41584309 11.04718148 78.03724237 13.9375 80.375 C14.73671875 81.01566406 15.5359375 81.65632812 16.359375 82.31640625 C16.96265625 82.81011719 17.5659375 83.30382812 18.1875 83.8125 C17.29766196 89.97074424 11.91348111 94.20888814 7.1875 97.8125 C-8.50035085 107.73918508 -26.59664115 110.83756677 -44.91796875 107.125 C-58.99738523 103.08789133 -70.72686456 94.30665407 -78.2421875 81.7578125 C-86.54097583 66.19242344 -88.77000351 48.35509886 -84.25 31.125 C-79.32806884 16.8410739 -70.2618378 4.98548016 -56.8125 -2.1875 C-38.51285549 -9.95551237 -17.38854465 -10.17289007 0 0 Z M-59.56640625 19.69140625 C-64.98983396 26.41971882 -67.8125 33.16855691 -67.8125 41.8125 C-43.7225 41.8125 -19.6325 41.8125 5.1875 41.8125 C4.09619928 30.89949283 1.75634208 22.74892382 -5.8125 14.8125 C-22.53151495 1.27520064 -45.18719529 4.28739629 -59.56640625 19.69140625 Z"></path>
<path transform="translate(2886.375,779.1875)" fill="#000000" d="M0 0 C8.33361375 6.27361934 12.47382523 14.83105702 14.14610291 24.97279358 C14.63085393 28.85943573 14.79749936 32.67445519 14.83032227 36.58374023 C14.84022186 37.32603378 14.85012146 38.06832733 14.86032104 38.83311462 C14.89165797 41.26240966 14.91658224 43.69172419 14.94140625 46.12109375 C14.96199986 47.81503275 14.98299693 49.50896689 15.00437927 51.20289612 C15.0593515 55.64317874 15.10886948 60.08350581 15.15722656 64.52386475 C15.20762399 69.06217363 15.26321447 73.60041863 15.31835938 78.13867188 C15.42563664 87.02989517 15.5266677 95.92117328 15.625 104.8125 C10.675 104.8125 5.725 104.8125 0.625 104.8125 C-0.035 99.8625 -0.695 94.9125 -1.375 89.8125 C-2.57125 91.318125 -3.7675 92.82375 -5 94.375 C-11.37420351 101.50924368 -20.93650526 107.29473935 -30.68994141 107.97363281 C-33.46008517 108.01949082 -36.22950832 108.04778291 -39 108.0625 C-39.94746094 108.083125 -40.89492187 108.10375 -41.87109375 108.125 C-53.31636973 108.18762805 -62.78422959 105.07229285 -71.1640625 97.11328125 C-77.41476184 90.26214527 -79.76241544 82.36058604 -79.5859375 73.1484375 C-78.69981643 63.3354671 -75.90242125 55.78481698 -68.546875 49.16796875 C-49.956296 35.15407809 -23.29301756 37.52552827 -1.375 37.8125 C-3.07632571 23.47795052 -3.07632571 23.47795052 -11.3359375 12.265625 C-20.6293577 6.11607557 -33.07338493 6.33529464 -43.75390625 8.49609375 C-49.18898627 10.35932886 -53.79096705 13.13830745 -58.40234375 16.54296875 C-60.41512423 17.83832253 -62.03676728 18.37833151 -64.375 18.8125 C-65.74419284 17.41035066 -67.09498709 15.99021527 -68.4375 14.5625 C-69.19160156 13.77359375 -69.94570312 12.9846875 -70.72265625 12.171875 C-72.375 9.8125 -72.375 9.8125 -72.41796875 7.73046875 C-68.19634113 -0.03289889 -55.25641692 -3.65792056 -47.375 -6.1875 C-31.55802447 -9.86882385 -13.77699419 -8.69912996 0 0 Z M-57.1875 62.46484375 C-61.37586252 67.33143543 -61.66715725 70.83325433 -61.5859375 77.0546875 C-61.18725488 82.26709362 -59.29456947 84.91382983 -55.625 88.5 C-49.26232024 93.02729137 -44.16643858 94.35183125 -36.5 94.25 C-35.70352051 94.24242676 -34.90704102 94.23485352 -34.08642578 94.22705078 C-28.08666093 94.05864927 -23.44177536 93.18332769 -18.375 89.8125 C-17.68277344 89.4 -16.99054687 88.9875 -16.27734375 88.5625 C-9.04144085 83.80168165 -4.42209067 76.18696181 -2.375 67.8125 C-1.28142008 62.12588442 -1.27061378 56.57693886 -1.375 50.8125 C-31.14570497 50.20437202 -31.14570497 50.20437202 -57.1875 62.46484375 Z"></path>
<path transform="translate(1808.375,779.1875)" fill="#000000" d="M0 0 C8.33361375 6.27361934 12.47382523 14.83105702 14.14610291 24.97279358 C14.63085393 28.85943573 14.79749936 32.67445519 14.83032227 36.58374023 C14.84022186 37.32603378 14.85012146 38.06832733 14.86032104 38.83311462 C14.89165797 41.26240966 14.91658224 43.69172419 14.94140625 46.12109375 C14.96199986 47.81503275 14.98299693 49.50896689 15.00437927 51.20289612 C15.0593515 55.64317874 15.10886948 60.08350581 15.15722656 64.52386475 C15.20762399 69.06217363 15.26321447 73.60041863 15.31835938 78.13867188 C15.42563664 87.02989517 15.5266677 95.92117328 15.625 104.8125 C10.675 104.8125 5.725 104.8125 0.625 104.8125 C-0.035 99.8625 -0.695 94.9125 -1.375 89.8125 C-2.57125 91.318125 -3.7675 92.82375 -5 94.375 C-11.37420351 101.50924368 -20.93650526 107.29473935 -30.68994141 107.97363281 C-33.46008517 108.01949082 -36.22950832 108.04778291 -39 108.0625 C-39.94746094 108.083125 -40.89492187 108.10375 -41.87109375 108.125 C-53.31636973 108.18762805 -62.78422959 105.07229285 -71.1640625 97.11328125 C-77.41476184 90.26214527 -79.76241544 82.36058604 -79.5859375 73.1484375 C-78.69981643 63.3354671 -75.90242125 55.78481698 -68.546875 49.16796875 C-49.956296 35.15407809 -23.29301756 37.52552827 -1.375 37.8125 C-3.07632571 23.47795052 -3.07632571 23.47795052 -11.3359375 12.265625 C-20.6293577 6.11607557 -33.07338493 6.33529464 -43.75390625 8.49609375 C-49.18898627 10.35932886 -53.79096705 13.13830745 -58.40234375 16.54296875 C-60.41512423 17.83832253 -62.03676728 18.37833151 -64.375 18.8125 C-65.74419284 17.41035066 -67.09498709 15.99021527 -68.4375 14.5625 C-69.19160156 13.77359375 -69.94570312 12.9846875 -70.72265625 12.171875 C-72.375 9.8125 -72.375 9.8125 -72.41796875 7.73046875 C-68.19634113 -0.03289889 -55.25641692 -3.65792056 -47.375 -6.1875 C-31.55802447 -9.86882385 -13.77699419 -8.69912996 0 0 Z M-57.1875 62.46484375 C-61.37586252 67.33143543 -61.66715725 70.83325433 -61.5859375 77.0546875 C-61.18725488 82.26709362 -59.29456947 84.91382983 -55.625 88.5 C-49.26232024 93.02729137 -44.16643858 94.35183125 -36.5 94.25 C-35.70352051 94.24242676 -34.90704102 94.23485352 -34.08642578 94.22705078 C-28.08666093 94.05864927 -23.44177536 93.18332769 -18.375 89.8125 C-17.68277344 89.4 -16.99054688 88.9875 -16.27734375 88.5625 C-9.04144085 83.80168165 -4.42209067 76.18696181 -2.375 67.8125 C-1.28142008 62.12588442 -1.27061378 56.57693886 -1.375 50.8125 C-31.14570497 50.20437202 -31.14570497 50.20437202 -57.1875 62.46484375 Z"></path>
<path transform="translate(2600,776)" fill="#000000" d="M0 0 C0.96808594 0.44730469 1.93617188 0.89460937 2.93359375 1.35546875 C16.84035447 8.39376149 25.63809609 19.42044105 31 34 C36.09632739 50.6480028 33.96589966 68.48509049 26.1875 83.8125 C18.30096702 97.36317637 6.28572949 105.48477278 -8.57421875 110.11328125 C-21.76920943 113.24274291 -38.63635605 112.73644575 -51 107 C-52.43472656 106.34644531 -52.43472656 106.34644531 -53.8984375 105.6796875 C-69.09279135 98.06169639 -77.50999613 85.83480456 -83 70 C-86.91622272 53.05956955 -84.37868836 35.48076706 -75.68359375 20.5625 C-67.49806479 8.10378306 -54.86066721 -0.10871477 -40.38891602 -3.58764648 C-27.44891426 -5.82123493 -12.01880531 -5.58571815 0 0 Z M-57 24 C-65.24391922 34.94541495 -67.99134944 47.80841272 -66.5 61.3125 C-64.54072013 72.54480994 -58.73712343 83.97768106 -49.3125 90.625 C-48.13107422 91.47964844 -48.13107422 91.47964844 -46.92578125 92.3515625 C-40.10085068 96.19685048 -33.46998507 97.56322019 -25.6875 97.5 C-24.44746216 97.49141968 -24.44746216 97.49141968 -23.18237305 97.48266602 C-13.11786265 97.19106914 -5.03687925 93.88604791 2.2578125 86.87890625 C13.65389023 74.58851749 15.78218441 62.6898468 15.17919922 46.42724609 C14.36960728 35.46135643 8.60962944 26.24685602 0.875 18.75 C-9.32027551 10.3102024 -19.94868893 8.6656595 -32.80419922 9.72216797 C-42.80738081 10.9878585 -50.42340394 16.63796377 -57 24 Z"></path>
<path transform="translate(2923,773)" fill="#000000" d="M0 0 C6.27 0 12.54 0 19 0 C23.76163551 10.07009874 28.02344472 20.26299952 32.1484375 30.60546875 C32.81226873 32.26369631 33.4763045 33.92184199 34.14053345 35.57991028 C35.51926651 39.02381937 36.89554293 42.46869666 38.27001953 45.91430664 C40.03400791 50.33577471 41.80427484 54.75469823 43.57633018 59.17293835 C44.94279204 62.58188743 46.30598472 65.99213622 47.66817093 69.40279579 C48.32025499 71.0343407 48.97336505 72.66547592 49.62751389 74.29619408 C50.53544836 76.56097545 51.43897225 78.82746593 52.34130859 81.09448242 C52.61240448 81.76817368 52.88350037 82.44186493 53.16281128 83.13597107 C55 87.7714493 55 87.7714493 55 90 C55.66 90 56.32 90 57 90 C57.09643799 89.36956787 57.19287598 88.73913574 57.29223633 88.08959961 C58.27961872 83.77938085 59.80760658 79.71565773 61.32421875 75.56640625 C61.83183243 74.16485291 61.83183243 74.16485291 62.34970093 72.73498535 C63.45871637 69.67617555 64.57298894 66.61931125 65.6875 63.5625 C66.45325786 61.45442351 67.21879968 59.34626854 67.98413086 57.23803711 C74.92543859 38.13517603 81.94562174 19.06135489 89 0 C95.27 0 101.54 0 108 0 C105.62369798 8.73951076 102.30807894 17.00604112 98.91003418 25.38494873 C97.10028919 29.84805435 95.30538786 34.31713874 93.5078125 38.78515625 C93.13390381 39.71332153 92.75999512 40.64148682 92.37475586 41.59777832 C88.80438539 50.46689791 85.28980685 59.35761727 81.78414917 68.25247192 C79.67428097 73.60294626 77.55763116 78.95074123 75.44160461 84.29878235 C73.42520903 89.39527491 71.41074019 94.4925174 69.39892578 99.59082031 C67.15112451 105.28511778 64.89543597 110.97624298 62.63513184 116.66558838 C61.76339228 118.86328121 60.89411058 121.0619508 60.02746582 123.26165771 C45.73668156 159.52043323 45.73668156 159.52043323 32 166 C28.74410586 167.03857708 25.76709221 167.11578241 22.359375 167.09765625 C21.28945312 167.09443359 20.21953125 167.09121094 19.1171875 167.08789062 C18.00601563 167.07951172 16.89484375 167.07113281 15.75 167.0625 C14.06003906 167.05573242 14.06003906 167.05573242 12.3359375 167.04882812 C9.55723783 167.03705397 6.77864591 167.0206084 4 167 C3.87963336 161.22240116 4.1679418 155.72040011 5 150 C6.30195313 150.04640625 7.60390625 150.0928125 8.9453125 150.140625 C10.67185196 150.17815847 12.39841636 150.21455693 14.125 150.25 C15.40890625 150.30027344 15.40890625 150.30027344 16.71875 150.3515625 C22.33715046 150.43799943 25.74623182 150.02481182 30 146 C35.02985352 139.12845886 38.33410749 131.26977877 41.5625 123.4375 C42.03751953 122.36564453 42.51253906 121.29378906 43.00195312 120.18945312 C45.82127837 113.57232196 45.82127837 113.57232196 45.16796875 106.640625 C44.47745525 105.07913679 43.75032575 103.53364455 43 102 C42.07415884 99.78941735 41.15275521 97.57697393 40.234375 95.36328125 C39.3871359 93.38856033 38.53203476 91.4173634 37.6762085 89.4463501 C36.37952933 86.45898929 35.09196481 83.46772561 33.80380249 80.47668457 C33.08365316 78.80456849 32.36312055 77.13261744 31.64224243 75.46081543 C26.87375814 64.39836678 22.14283448 53.31987695 17.41711426 42.23910522 C15.89949632 38.68240969 14.37898108 35.12696204 12.85839844 31.5715332 C8.39199038 21.10961868 3.96317208 10.66484504 0 0 Z"></path>
<path transform="translate(2394,718)" fill="#000000" d="M0 0 C42.57 0 85.14 0 129 0 C129 4.95 129 9.9 129 15 C110.85 15 92.7 15 74 15 C74 64.83 74 114.66 74 166 C68.06 166 62.12 166 56 166 C56 116.17 56 66.34 56 15 C37.52 15 19.04 15 0 15 C0 10.05 0 5.1 0 0 Z"></path>
<path transform="translate(1916.875,771.5625)" fill="#000000" d="M0 0 C0.97090576 0.00829834 1.94181152 0.01659668 2.94213867 0.02514648 C14.22681456 0.29159417 23.06708262 3.25367766 31.125 11.4375 C40.82660972 23.73775518 41.7079564 37.8079952 41.515625 52.76953125 C41.50814596 54.49972371 41.50246091 56.22992475 41.49847412 57.96012878 C41.4833484 62.46965762 41.44418283 66.97865451 41.3996582 71.48797607 C41.35842018 76.10714527 41.34040276 80.72640211 41.3203125 85.34570312 C41.27767279 94.37657099 41.20743352 103.40690763 41.125 112.4375 C35.515 112.4375 29.905 112.4375 24.125 112.4375 C24.1156543 110.29419189 24.10630859 108.15088379 24.09667969 105.94262695 C24.06271849 98.81391538 24.00706516 91.68548749 23.94109726 84.55700397 C23.90180245 80.2403811 23.86952671 75.92395674 23.85400391 71.60717773 C23.83871745 67.43125151 23.80406399 63.2558717 23.75669098 59.08019066 C23.74199949 57.49727348 23.73396612 55.91427823 23.73311615 54.33129311 C23.72116732 43.22305243 23.29533671 31.66855939 16.4375 22.375 C10.54789816 16.52902484 4.29315372 15.05172011 -3.875 14.9375 C-10.28619363 15.01966632 -15.4759913 15.87549841 -20.875 19.4375 C-21.49632812 19.82679688 -22.11765625 20.21609375 -22.7578125 20.6171875 C-30.08770335 25.97974834 -34.10678089 35.75715166 -35.875 44.4375 C-36.93642938 52.30541083 -37.08253777 60.17335221 -37.19140625 68.1015625 C-37.21218735 69.37478363 -37.23296844 70.64800476 -37.25437927 71.95980835 C-37.3083206 75.31008869 -37.35867644 78.66038226 -37.40722656 82.01074219 C-37.45787513 85.44340795 -37.51333254 88.87599587 -37.56835938 92.30859375 C-37.67495691 99.01816848 -37.77637463 105.72780355 -37.875 112.4375 C-43.155 112.4375 -48.435 112.4375 -53.875 112.4375 C-54.00676038 101.34369639 -54.13739315 90.24988097 -54.26615143 79.1560421 C-54.32601006 74.00229457 -54.38632379 68.84855328 -54.44775391 63.69482422 C-54.5072461 58.70216762 -54.56544327 53.70949732 -54.62281799 48.71681595 C-54.64469702 46.83147285 -54.66700858 44.9461347 -54.68980408 43.06080246 C-54.85312613 29.51910085 -54.90065109 15.98015795 -54.875 2.4375 C-49.595 2.4375 -44.315 2.4375 -38.875 2.4375 C-38.215 7.3875 -37.555 12.3375 -36.875 17.4375 C-35.92625 16.24125 -34.9775 15.045 -34 13.8125 C-25.0456051 3.61243323 -13.22268607 -0.14543008 0 0 Z"></path>
<path transform="translate(1547,707)" fill="#000000" d="M0 0 C5.61 0 11.22 0 17 0 C17 58.41 17 116.82 17 177 C11.39 177 5.78 177 0 177 C0 118.59 0 60.18 0 0 Z"></path>
<path transform="translate(2321.88671875,771.90234375)" fill="#000000" d="M0 0 C0.93779297 0.00322266 1.87558594 0.00644531 2.84179688 0.00976562 C4.30649414 0.02233398 4.30649414 0.02233398 5.80078125 0.03515625 C6.78884766 0.03966797 7.77691406 0.04417969 8.79492188 0.04882812 C11.23440083 0.06061305 13.67384866 0.07854842 16.11328125 0.09765625 C15.45328125 5.70765625 14.79328125 11.31765625 14.11328125 17.09765625 C12.78554687 17.03964844 11.4578125 16.98164062 10.08984375 16.921875 C-5.07383245 16.44893662 -5.07383245 16.44893662 -17.890625 23.859375 C-29.27054514 35.57190241 -29.15241396 52.78514013 -29.30078125 68.15234375 C-29.3201474 69.41990509 -29.33951355 70.68746643 -29.35946655 71.99343872 C-29.40857523 75.31077195 -29.45006222 78.62807646 -29.48760986 81.94555664 C-29.52812154 85.35181925 -29.57899454 88.75792696 -29.62890625 92.1640625 C-29.72422183 98.80850086 -29.80850138 105.45299551 -29.88671875 112.09765625 C-35.16671875 112.09765625 -40.44671875 112.09765625 -45.88671875 112.09765625 C-46.01847913 101.00385264 -46.1491119 89.91003722 -46.27787018 78.81619835 C-46.33772881 73.66245082 -46.39804254 68.50870953 -46.45947266 63.35498047 C-46.51896485 58.36232387 -46.57716202 53.36965357 -46.63453674 48.3769722 C-46.65641577 46.4916291 -46.67872733 44.60629095 -46.70152283 42.72095871 C-46.86484488 29.1792571 -46.91236984 15.6403142 -46.88671875 2.09765625 C-41.60671875 2.09765625 -36.32671875 2.09765625 -30.88671875 2.09765625 C-30.22671875 7.04765625 -29.56671875 11.99765625 -28.88671875 17.09765625 C-27.64921875 15.57140625 -26.41171875 14.04515625 -25.13671875 12.47265625 C-18.75348811 5.3295172 -9.78325569 -0.05929246 0 0 Z"></path>
<path transform="translate(1386.6875,111.6875)" fill="#060606" d="M0 0 C0.87333984 -0.02900391 1.74667969 -0.05800781 2.64648438 -0.08789062 C8.74604302 -0.14710964 13.20458069 0.90036561 18.3125 4.3125 C21.71970927 7.71970927 22.29615044 11.28056201 22.33422852 16.01293945 C22.28709717 16.97417725 22.23996582 17.93541504 22.19140625 18.92578125 C22.14330811 20.00190674 22.09520996 21.07803223 22.0456543 22.18676758 C21.98933838 23.32138428 21.93302246 24.45600098 21.875 25.625 C21.4068056 35.01164458 21.4068056 35.01164458 21.3828125 44.40625 C21.40013428 45.13287842 21.41745605 45.85950684 21.43530273 46.6081543 C21.49552504 48.48549942 21.58074687 50.36199668 21.66796875 52.23828125 C21.22506987 56.06862655 20.0317628 57.63229304 17.3125 60.3125 C12.4687941 61.92706863 7.50989017 61.53865798 2.4375 61.5625 C0.80361328 61.5934375 0.80361328 61.5934375 -0.86328125 61.625 C-1.91644531 61.63015625 -2.96960937 61.6353125 -4.0546875 61.640625 C-5.01487793 61.6499707 -5.97506836 61.65931641 -6.96435547 61.66894531 C-10.19706582 61.24580051 -12.06185096 60.2142094 -14.6875 58.3125 C-19.57818863 49.99832933 -17.9723056 37.01490888 -18.03759766 27.67285156 C-18.05426882 25.92532132 -18.08170271 24.17786224 -18.11962891 22.43066406 C-18.17437434 19.88571557 -18.19624914 17.34233252 -18.2109375 14.796875 C-18.23360687 14.0197113 -18.25627625 13.24254761 -18.27963257 12.4418335 C-18.26388738 8.40138417 -17.87794935 6.55350586 -15.34228516 3.34472656 C-10.49466484 -0.36610584 -5.84946376 0.06335159 0 0 Z"></path>
<path transform="translate(3749.662353515625,114.0615234375)" fill="#060606" d="M0 0 C2.11480299 3.06470811 1.68376368 6.31723753 1.59545898 9.90332031 C1.58553421 11.08614342 1.58553421 11.08614342 1.57540894 12.29286194 C1.55200507 14.82096273 1.50840918 17.3481899 1.46264648 19.87597656 C1.41584593 23.17669819 1.37879413 26.47743799 1.34545898 29.77832031 C1.33460266 30.57571625 1.32374634 31.37311218 1.31256104 32.19467163 C1.26389022 37.69640076 1.61309764 43.0426216 2.4074707 48.49536133 C2.31530317 51.72025802 1.22758703 53.36435121 -0.66235352 55.93847656 C-5.64470604 59.36477905 -10.20958105 59.39594504 -16.03735352 59.31347656 C-17.25551758 59.33087891 -17.25551758 59.33087891 -18.49829102 59.34863281 C-25.1977043 59.31642409 -31.13181815 58.34248516 -36.16235352 53.56347656 C-38.19690078 48.646654 -38.01760529 44.53067211 -37.76098633 39.26220703 C-37.6419612 36.45804579 -37.58706218 33.65472117 -37.52954102 30.84863281 C-37.47113907 28.62854093 -37.41122812 26.40848826 -37.34985352 24.18847656 C-37.32769775 23.12330811 -37.30554199 22.05813965 -37.28271484 20.96069336 C-37.01357218 13.20273169 -36.25999861 6.2381879 -31.34985352 0.00097656 C-23.16305557 -6.28191489 -8.64517736 -5.52052154 0 0 Z"></path>
<path transform="translate(2217,774)" fill="#000000" d="M0 0 C5.61 0 11.22 0 17 0 C17 36.3 17 72.6 17 110 C11.39 110 5.78 110 0 110 C0 73.7 0 37.4 0 0 Z"></path>
<path transform="translate(2230,721)" fill="#000000" d="M0 0 C3.12001504 1.68818449 5.39047471 3.78094941 7 7 C7.68128376 13.81283762 7.68128376 13.81283762 5.953125 16.82421875 C3.51061763 19.79114682 1.6758323 21.81906943 -2.20703125 22.23828125 C-6.35438256 22.35642169 -9.24049461 22.3797527 -13 20.5 C-15.66307452 17.17115685 -16.82461496 14.27301731 -17 10 C-14.29234391 0.82405437 -9.10098696 -1.57654892 0 0 Z"></path>
</svg>
